<svg width="1920" height="1080" viewBox="0 0 1920 1080" fill="none" xmlns="http://www.w3.org/2000/svg">
<g clip-path="url(#clip0_85_1558)">
<rect width="1920" height="1080" fill="white"/>
<g filter="url(#filter0_di_85_1558)">
<rect width="1920" height="68" fill="#FEF7FF"/>
<path d="M36 32.9996H23.83L29.42 27.4096L28 25.9996L20 33.9996L28 41.9996L29.41 40.5896L23.83 34.9996H36V32.9996Z" fill="#79747E"/>
<path d="M64 25.9996L62.59 27.4096L68.17 32.9996H56V34.9996H68.17L62.59 40.5896L64 41.9996L72 33.9996L64 25.9996Z" fill="#79747E"/>
<path d="M105.65 28.3496C104.2 26.8996 102.21 25.9996 99.9998 25.9996C95.5798 25.9996 92.0098 29.5796 92.0098 33.9996C92.0098 38.4196 95.5798 41.9996 99.9998 41.9996C103.73 41.9996 106.84 39.4496 107.73 35.9996H105.65C104.83 38.3296 102.61 39.9996 99.9998 39.9996C96.6898 39.9996 93.9998 37.3096 93.9998 33.9996C93.9998 30.6896 96.6898 27.9996 99.9998 27.9996C101.66 27.9996 103.14 28.6896 104.22 29.7796L101 32.9996H108V25.9996L105.65 28.3496Z" fill="#79747E"/>
<rect x="128" y="16" width="1692" height="36" rx="18" fill="#F3EDF7"/>
<g clip-path="url(#clip1_85_1558)">
<path opacity="0.65" d="M155.52 31.4406H154.88V30.1606C154.88 28.3942 153.446 26.9606 151.68 26.9606C149.914 26.9606 148.48 28.3942 148.48 30.1606V31.4406H147.84C147.136 31.4406 146.56 32.0166 146.56 32.7206V39.1206C146.56 39.8246 147.136 40.4006 147.84 40.4006H155.52C156.224 40.4006 156.8 39.8246 156.8 39.1206V32.7206C156.8 32.0166 156.224 31.4406 155.52 31.4406ZM151.68 37.2006C150.976 37.2006 150.4 36.6246 150.4 35.9206C150.4 35.2166 150.976 34.6406 151.68 34.6406C152.384 34.6406 152.96 35.2166 152.96 35.9206C152.96 36.6246 152.384 37.2006 151.68 37.2006ZM153.664 31.4406H149.696V30.1606C149.696 29.0662 150.586 28.1766 151.68 28.1766C152.774 28.1766 153.664 29.0662 153.664 30.1606V31.4406Z" fill="#49454F"/>
</g>
<path d="M170.602 37.5L172.774 30.5469H173.727L173.54 31.9297L171.329 39H170.399L170.602 37.5ZM169.141 30.5469L170.993 37.5781L171.125 39H170.149L167.696 30.5469H169.141ZM175.805 37.5234L177.571 30.5469H179.008L176.555 39H175.586L175.805 37.5234ZM173.938 30.5469L176.063 37.3828L176.305 39H175.383L173.11 31.9141L172.922 30.5469H173.938ZM183.133 37.5L185.305 30.5469H186.258L186.071 31.9297L183.86 39H182.93L183.133 37.5ZM181.672 30.5469L183.524 37.5781L183.657 39H182.68L180.227 30.5469H181.672ZM188.336 37.5234L190.102 30.5469H191.54L189.086 39H188.118L188.336 37.5234ZM186.469 30.5469L188.594 37.3828L188.836 39H187.915L185.641 31.9141L185.454 30.5469H186.469ZM195.665 37.5L197.836 30.5469H198.79L198.602 31.9297L196.391 39H195.461L195.665 37.5ZM194.204 30.5469L196.055 37.5781L196.188 39H195.211L192.758 30.5469H194.204ZM200.868 37.5234L202.633 30.5469H204.071L201.618 39H200.649L200.868 37.5234ZM199 30.5469L201.125 37.3828L201.368 39H200.446L198.172 31.9141L197.985 30.5469H199ZM205.11 38.2344C205.11 37.9896 205.185 37.7839 205.336 37.6172C205.493 37.4453 205.717 37.3594 206.008 37.3594C206.3 37.3594 206.521 37.4453 206.672 37.6172C206.829 37.7839 206.907 37.9896 206.907 38.2344C206.907 38.474 206.829 38.6771 206.672 38.8438C206.521 39.0104 206.3 39.0938 206.008 39.0938C205.717 39.0938 205.493 39.0104 205.336 38.8438C205.185 38.6771 205.11 38.474 205.11 38.2344ZM214.977 37.0469V30.5469H216.43V39H215.047L214.977 37.0469ZM215.25 35.2656L215.852 35.25C215.852 35.8125 215.792 36.3333 215.672 36.8125C215.558 37.2865 215.37 37.6979 215.11 38.0469C214.849 38.3958 214.508 38.6693 214.086 38.8672C213.665 39.0599 213.152 39.1562 212.547 39.1562C212.136 39.1562 211.758 39.0964 211.415 38.9766C211.076 38.8568 210.784 38.6719 210.54 38.4219C210.295 38.1719 210.105 37.8464 209.969 37.4453C209.839 37.0443 209.774 36.5625 209.774 36V30.5469H211.219V36.0156C211.219 36.3958 211.261 36.7109 211.344 36.9609C211.433 37.2057 211.55 37.401 211.696 37.5469C211.847 37.6875 212.014 37.7865 212.196 37.8438C212.383 37.901 212.576 37.9297 212.774 37.9297C213.389 37.9297 213.875 37.8125 214.235 37.5781C214.594 37.3385 214.852 37.0182 215.008 36.6172C215.17 36.2109 215.25 35.7604 215.25 35.2656ZM220.579 31.875V39H219.133V30.5469H220.54L220.579 31.875ZM223.219 30.5L223.211 31.8438C223.092 31.8177 222.977 31.8021 222.868 31.7969C222.764 31.7865 222.644 31.7812 222.508 31.7812C222.175 31.7812 221.881 31.8333 221.625 31.9375C221.37 32.0417 221.154 32.1875 220.977 32.375C220.8 32.5625 220.659 32.7865 220.555 33.0469C220.456 33.3021 220.391 33.5833 220.36 33.8906L219.954 34.125C219.954 33.6146 220.003 33.1354 220.102 32.6875C220.206 32.2396 220.365 31.8438 220.579 31.5C220.792 31.151 221.063 30.8802 221.391 30.6875C221.724 30.4896 222.12 30.3906 222.579 30.3906C222.683 30.3906 222.803 30.4036 222.938 30.4297C223.073 30.4505 223.167 30.474 223.219 30.5ZM226.625 27V39H225.172V27H226.625ZM229.469 38.2344C229.469 37.9896 229.545 37.7839 229.696 37.6172C229.852 37.4453 230.076 37.3594 230.368 37.3594C230.659 37.3594 230.881 37.4453 231.032 37.6172C231.188 37.7839 231.266 37.9896 231.266 38.2344C231.266 38.474 231.188 38.6771 231.032 38.8438C230.881 39.0104 230.659 39.0938 230.368 39.0938C230.076 39.0938 229.852 39.0104 229.696 38.8438C229.545 38.6771 229.469 38.474 229.469 38.2344ZM237.547 37.9688C237.891 37.9688 238.209 37.8984 238.5 37.7578C238.792 37.6172 239.032 37.4245 239.219 37.1797C239.407 36.9297 239.514 36.6458 239.54 36.3281H240.915C240.889 36.8281 240.719 37.2943 240.407 37.7266C240.099 38.1536 239.696 38.5 239.196 38.7656C238.696 39.026 238.146 39.1562 237.547 39.1562C236.912 39.1562 236.357 39.0443 235.883 38.8203C235.415 38.5964 235.024 38.2891 234.711 37.8984C234.404 37.5078 234.172 37.0599 234.016 36.5547C233.865 36.0443 233.79 35.5052 233.79 34.9375V34.6094C233.79 34.0417 233.865 33.5052 234.016 33C234.172 32.4896 234.404 32.0391 234.711 31.6484C235.024 31.2578 235.415 30.9505 235.883 30.7266C236.357 30.5026 236.912 30.3906 237.547 30.3906C238.209 30.3906 238.787 30.526 239.282 30.7969C239.777 31.0625 240.165 31.4271 240.446 31.8906C240.732 32.349 240.889 32.8698 240.915 33.4531H239.54C239.514 33.1042 239.415 32.7891 239.243 32.5078C239.076 32.2266 238.847 32.0026 238.555 31.8359C238.269 31.6641 237.933 31.5781 237.547 31.5781C237.105 31.5781 236.732 31.6667 236.43 31.8438C236.133 32.0156 235.896 32.25 235.719 32.5469C235.547 32.8385 235.422 33.1641 235.344 33.5234C235.271 33.8776 235.235 34.2396 235.235 34.6094V34.9375C235.235 35.3073 235.271 35.6719 235.344 36.0312C235.417 36.3906 235.54 36.7161 235.711 37.0078C235.889 37.2995 236.125 37.5339 236.422 37.7109C236.724 37.8828 237.099 37.9688 237.547 37.9688ZM242.657 34.8672V34.6875C242.657 34.0781 242.745 33.513 242.922 32.9922C243.099 32.4661 243.355 32.0104 243.688 31.625C244.021 31.2344 244.425 30.9323 244.899 30.7188C245.373 30.5 245.904 30.3906 246.493 30.3906C247.086 30.3906 247.62 30.5 248.094 30.7188C248.573 30.9323 248.98 31.2344 249.313 31.625C249.652 32.0104 249.909 32.4661 250.086 32.9922C250.264 33.513 250.352 34.0781 250.352 34.6875V34.8672C250.352 35.4766 250.264 36.0417 250.086 36.5625C249.909 37.0833 249.652 37.5391 249.313 37.9297C248.98 38.3151 248.576 38.6172 248.102 38.8359C247.633 39.0495 247.102 39.1562 246.508 39.1562C245.915 39.1562 245.381 39.0495 244.907 38.8359C244.433 38.6172 244.027 38.3151 243.688 37.9297C243.355 37.5391 243.099 37.0833 242.922 36.5625C242.745 36.0417 242.657 35.4766 242.657 34.8672ZM244.102 34.6875V34.8672C244.102 35.2891 244.152 35.6875 244.25 36.0625C244.349 36.4323 244.498 36.7604 244.696 37.0469C244.899 37.3333 245.152 37.5599 245.454 37.7266C245.756 37.888 246.107 37.9688 246.508 37.9688C246.904 37.9688 247.25 37.888 247.547 37.7266C247.849 37.5599 248.099 37.3333 248.297 37.0469C248.495 36.7604 248.644 36.4323 248.743 36.0625C248.847 35.6875 248.899 35.2891 248.899 34.8672V34.6875C248.899 34.2708 248.847 33.8776 248.743 33.5078C248.644 33.1328 248.493 32.8021 248.29 32.5156C248.092 32.224 247.842 31.9948 247.54 31.8281C247.243 31.6615 246.894 31.5781 246.493 31.5781C246.097 31.5781 245.748 31.6615 245.446 31.8281C245.149 31.9948 244.899 32.224 244.696 32.5156C244.498 32.8021 244.349 33.1328 244.25 33.5078C244.152 33.8776 244.102 34.2708 244.102 34.6875ZM254.102 32.2266V39H252.649V30.5469H254.024L254.102 32.2266ZM253.805 34.4531L253.133 34.4297C253.139 33.8516 253.214 33.3177 253.36 32.8281C253.506 32.3333 253.722 31.9036 254.008 31.5391C254.295 31.1745 254.652 30.8932 255.079 30.6953C255.506 30.4922 256 30.3906 256.563 30.3906C256.959 30.3906 257.323 30.4479 257.657 30.5625C257.99 30.6719 258.279 30.8464 258.524 31.0859C258.769 31.3255 258.959 31.6328 259.094 32.0078C259.23 32.3828 259.297 32.8359 259.297 33.3672V39H257.852V33.4375C257.852 32.9948 257.777 32.6406 257.625 32.375C257.48 32.1094 257.271 31.9167 257 31.7969C256.73 31.6719 256.412 31.6094 256.047 31.6094C255.62 31.6094 255.264 31.6849 254.977 31.8359C254.691 31.987 254.461 32.1953 254.29 32.4609C254.118 32.7266 253.993 33.0312 253.915 33.375C253.842 33.7135 253.805 34.0729 253.805 34.4531ZM259.282 33.6562L258.313 33.9531C258.318 33.4896 258.394 33.0443 258.54 32.6172C258.691 32.1901 258.907 31.8099 259.188 31.4766C259.474 31.1432 259.826 30.8802 260.243 30.6875C260.659 30.4896 261.136 30.3906 261.672 30.3906C262.125 30.3906 262.527 30.4505 262.875 30.5703C263.23 30.6901 263.527 30.875 263.766 31.125C264.011 31.3698 264.196 31.6849 264.321 32.0703C264.446 32.4557 264.508 32.9141 264.508 33.4453V39H263.055V33.4297C263.055 32.9557 262.98 32.5885 262.829 32.3281C262.683 32.0625 262.474 31.8776 262.204 31.7734C261.938 31.6641 261.62 31.6094 261.25 31.6094C260.933 31.6094 260.652 31.6641 260.407 31.7734C260.162 31.8828 259.956 32.0339 259.79 32.2266C259.623 32.4141 259.495 32.6302 259.407 32.875C259.323 33.1198 259.282 33.3802 259.282 33.6562Z" fill="#1D1B20"/>
<path d="M1802.33 31.6984L1796.34 31.1817L1794 25.665L1791.66 31.19L1785.67 31.6984L1790.22 35.64L1788.85 41.4984L1794 38.39L1799.15 41.4984L1797.79 35.64L1802.33 31.6984ZM1794 36.8317L1790.87 38.7234L1791.7 35.1567L1788.93 32.7567L1792.58 32.44L1794 29.0817L1795.43 32.4484L1799.08 32.765L1796.31 35.165L1797.14 38.7317L1794 36.8317Z" fill="#79747E"/>
<rect x="1836" y="20" width="28" height="28" rx="14" fill="#79747E"/>
<path d="M1844.99 28.4434H1846.46L1850.18 37.7168L1853.9 28.4434H1855.37L1850.74 39.8184H1849.6L1844.99 28.4434ZM1844.52 28.4434H1845.81L1846.02 35.3809V39.8184H1844.52V28.4434ZM1854.55 28.4434H1855.84V39.8184H1854.34V35.3809L1854.55 28.4434Z" fill="white"/>
<path d="M1892 29.9996C1893.1 29.9996 1894 29.0996 1894 27.9996C1894 26.8996 1893.1 25.9996 1892 25.9996C1890.9 25.9996 1890 26.8996 1890 27.9996C1890 29.0996 1890.9 29.9996 1892 29.9996ZM1892 31.9996C1890.9 31.9996 1890 32.8996 1890 33.9996C1890 35.0996 1890.9 35.9996 1892 35.9996C1893.1 35.9996 1894 35.0996 1894 33.9996C1894 32.8996 1893.1 31.9996 1892 31.9996ZM1892 37.9996C1890.9 37.9996 1890 38.8996 1890 39.9996C1890 41.0996 1890.9 41.9996 1892 41.9996C1893.1 41.9996 1894 41.0996 1894 39.9996C1894 38.8996 1893.1 37.9996 1892 37.9996Z" fill="#79747E"/>
</g>
<path d="M1614.93 578.456H1616.26V580.84H1614.93V578.456ZM1621.26 569.768H1622.59V584.248H1621.26V569.768ZM1611.07 581.496L1610.88 580.376C1611.8 580.365 1612.79 580.355 1613.86 580.344C1614.92 580.333 1616.01 580.296 1617.12 580.232C1618.23 580.168 1619.3 580.067 1620.34 579.928L1620.43 580.92C1619.37 581.091 1618.28 581.219 1617.18 581.304C1616.09 581.379 1615.01 581.432 1613.97 581.464C1612.92 581.485 1611.96 581.496 1611.07 581.496ZM1611.18 571.544H1619.97V572.616H1611.18V571.544ZM1615.57 573.432C1616.26 573.432 1616.87 573.544 1617.39 573.768C1617.91 573.992 1618.32 574.307 1618.61 574.712C1618.91 575.107 1619.06 575.576 1619.06 576.12C1619.06 576.653 1618.91 577.123 1618.61 577.528C1618.32 577.933 1617.91 578.248 1617.39 578.472C1616.87 578.685 1616.26 578.792 1615.57 578.792C1614.89 578.792 1614.28 578.685 1613.76 578.472C1613.24 578.248 1612.83 577.933 1612.54 577.528C1612.26 577.123 1612.11 576.653 1612.11 576.12C1612.11 575.576 1612.26 575.107 1612.54 574.712C1612.83 574.307 1613.24 573.992 1613.76 573.768C1614.28 573.544 1614.89 573.432 1615.57 573.432ZM1615.57 574.472C1614.93 574.472 1614.4 574.621 1613.98 574.92C1613.57 575.219 1613.36 575.619 1613.36 576.12C1613.36 576.611 1613.57 577.005 1613.98 577.304C1614.4 577.603 1614.93 577.752 1615.57 577.752C1616.23 577.752 1616.76 577.603 1617.17 577.304C1617.58 577.005 1617.79 576.611 1617.79 576.12C1617.79 575.619 1617.58 575.219 1617.17 574.92C1616.76 574.621 1616.23 574.472 1615.57 574.472ZM1614.93 569.784H1616.26V572.12H1614.93V569.784ZM1629.61 577.064H1630.94V580.28H1629.61V577.064ZM1636.03 569.784H1637.36V580.776H1636.03V569.784ZM1627.49 582.84H1637.71V583.928H1627.49V582.84ZM1627.49 579.704H1628.81V583.128H1627.49V579.704ZM1625.61 577.56L1625.44 576.456C1626.33 576.456 1627.31 576.451 1628.35 576.44C1629.41 576.419 1630.48 576.381 1631.58 576.328C1632.68 576.264 1633.74 576.168 1634.77 576.04L1634.86 577C1633.83 577.171 1632.76 577.299 1631.66 577.384C1630.57 577.459 1629.51 577.507 1628.48 577.528C1627.44 577.549 1626.49 577.56 1625.61 577.56ZM1633.09 578.328H1636.38V579.288H1633.09V578.328ZM1630.14 570.36C1630.86 570.36 1631.48 570.467 1632.01 570.68C1632.55 570.883 1632.96 571.176 1633.25 571.56C1633.55 571.933 1633.69 572.376 1633.69 572.888C1633.69 573.389 1633.55 573.832 1633.25 574.216C1632.96 574.6 1632.55 574.893 1632.01 575.096C1631.48 575.299 1630.86 575.4 1630.14 575.4C1629.44 575.4 1628.81 575.299 1628.27 575.096C1627.74 574.893 1627.32 574.6 1627.02 574.216C1626.73 573.832 1626.59 573.389 1626.59 572.888C1626.59 572.376 1626.73 571.933 1627.02 571.56C1627.32 571.176 1627.74 570.883 1628.27 570.68C1628.81 570.467 1629.44 570.36 1630.14 570.36ZM1630.14 571.352C1629.46 571.352 1628.91 571.491 1628.48 571.768C1628.05 572.045 1627.84 572.419 1627.84 572.888C1627.84 573.347 1628.05 573.715 1628.48 573.992C1628.91 574.269 1629.46 574.408 1630.14 574.408C1630.81 574.408 1631.36 574.269 1631.79 573.992C1632.22 573.715 1632.43 573.347 1632.43 572.888C1632.43 572.568 1632.33 572.296 1632.14 572.072C1631.95 571.848 1631.68 571.672 1631.34 571.544C1631 571.416 1630.6 571.352 1630.14 571.352ZM1650.03 569.768H1651.36V584.232H1650.03V569.768ZM1651.01 575.64H1653.66V576.744H1651.01V575.64ZM1646.33 571.32H1647.63C1647.63 572.696 1647.41 574.013 1646.96 575.272C1646.51 576.52 1645.81 577.677 1644.85 578.744C1643.89 579.8 1642.62 580.717 1641.05 581.496L1640.32 580.472C1641.66 579.8 1642.78 579.016 1643.66 578.12C1644.56 577.213 1645.22 576.211 1645.66 575.112C1646.11 574.003 1646.33 572.808 1646.33 571.528V571.32ZM1640.99 571.32H1647.01V572.424H1640.99V571.32ZM1665.48 569.768H1666.81V577.544H1665.48V569.768ZM1657.5 578.264H1658.8V580.008H1665.5V578.264H1666.81V584.056H1657.5V578.264ZM1658.8 581.064V582.968H1665.5V581.064H1658.8ZM1659.05 570.456C1659.79 570.456 1660.44 570.6 1661 570.888C1661.57 571.165 1662.01 571.555 1662.33 572.056C1662.66 572.557 1662.83 573.139 1662.83 573.8C1662.83 574.451 1662.66 575.032 1662.33 575.544C1662.01 576.045 1661.57 576.435 1661 576.712C1660.44 576.989 1659.79 577.128 1659.05 577.128C1658.33 577.128 1657.68 576.989 1657.1 576.712C1656.53 576.435 1656.09 576.045 1655.76 575.544C1655.44 575.032 1655.28 574.451 1655.28 573.8C1655.28 573.139 1655.44 572.557 1655.76 572.056C1656.09 571.555 1656.53 571.165 1657.1 570.888C1657.68 570.6 1658.33 570.456 1659.05 570.456ZM1659.05 571.576C1658.57 571.576 1658.15 571.672 1657.77 571.864C1657.4 572.045 1657.11 572.307 1656.89 572.648C1656.68 572.979 1656.57 573.363 1656.57 573.8C1656.57 574.227 1656.68 574.611 1656.89 574.952C1657.11 575.283 1657.4 575.544 1657.77 575.736C1658.15 575.928 1658.57 576.024 1659.05 576.024C1659.53 576.024 1659.96 575.928 1660.33 575.736C1660.71 575.544 1661 575.283 1661.21 574.952C1661.43 574.611 1661.53 574.227 1661.53 573.8C1661.53 573.363 1661.43 572.979 1661.21 572.648C1661 572.307 1660.71 572.045 1660.33 571.864C1659.96 571.672 1659.53 571.576 1659.05 571.576Z" fill="#1E1E1E"/>
<path d="M1704.31 569.768H1705.64V584.264H1704.31V569.768ZM1694.62 571H1695.94V574.808H1700.12V571H1701.43V580.776H1694.62V571ZM1695.94 575.864V579.672H1700.12V575.864H1695.94ZM1709.27 570.568H1716.02V576.488H1709.27V570.568ZM1714.73 571.64H1710.57V575.432H1714.73V571.64ZM1719.05 569.768H1720.37V577.208H1719.05V569.768ZM1711.01 577.944H1720.37V581.432H1712.34V583.464H1711.05V580.456H1719.06V579H1711.01V577.944ZM1711.05 583.016H1720.85V584.088H1711.05V583.016ZM1730.07 573.848H1734.21V574.936H1730.07V573.848ZM1733.81 569.784H1735.14V580.488H1733.81V569.784ZM1725.85 582.84H1735.48V583.928H1725.85V582.84ZM1725.85 579.448H1727.17V583.384H1725.85V579.448ZM1723.94 570.744H1725.27V573.288H1729.17V570.744H1730.49V578.024H1723.94V570.744ZM1725.27 574.328V576.952H1729.17V574.328H1725.27ZM1738.6 571.896H1750.36V572.984H1738.6V571.896ZM1737.96 581.464H1751.08V582.552H1737.96V581.464ZM1743.83 579.16H1745.14V581.88H1743.83V579.16ZM1744.48 573.944C1745.45 573.944 1746.29 574.056 1747 574.28C1747.71 574.493 1748.26 574.803 1748.64 575.208C1749.03 575.613 1749.22 576.109 1749.22 576.696C1749.22 577.272 1749.03 577.768 1748.64 578.184C1748.26 578.6 1747.71 578.92 1747 579.144C1746.29 579.357 1745.45 579.464 1744.48 579.464C1743.51 579.464 1742.67 579.357 1741.96 579.144C1741.25 578.92 1740.71 578.6 1740.32 578.184C1739.94 577.768 1739.75 577.272 1739.75 576.696C1739.75 576.109 1739.94 575.613 1740.32 575.208C1740.71 574.803 1741.25 574.493 1741.96 574.28C1742.67 574.056 1743.51 573.944 1744.48 573.944ZM1744.48 575C1743.78 575 1743.17 575.069 1742.66 575.208C1742.16 575.336 1741.77 575.528 1741.49 575.784C1741.23 576.029 1741.09 576.333 1741.09 576.696C1741.09 577.048 1741.23 577.352 1741.49 577.608C1741.77 577.864 1742.16 578.061 1742.66 578.2C1743.17 578.328 1743.78 578.392 1744.48 578.392C1745.19 578.392 1745.79 578.328 1746.29 578.2C1746.79 578.061 1747.18 577.864 1747.46 577.608C1747.74 577.352 1747.88 577.048 1747.88 576.696C1747.88 576.333 1747.74 576.029 1747.46 575.784C1747.18 575.528 1746.79 575.336 1746.29 575.208C1745.79 575.069 1745.19 575 1744.48 575ZM1743.83 570.008H1745.14V572.552H1743.83V570.008ZM1760.79 572.152H1761.86V572.776C1761.86 573.597 1761.69 574.355 1761.35 575.048C1761.02 575.741 1760.55 576.344 1759.94 576.856C1759.34 577.368 1758.63 577.757 1757.82 578.024L1757.18 576.968C1757.89 576.744 1758.52 576.424 1759.06 576.008C1759.61 575.592 1760.03 575.107 1760.33 574.552C1760.64 573.997 1760.79 573.405 1760.79 572.776V572.152ZM1761.02 572.152H1762.1V572.776C1762.1 573.352 1762.25 573.901 1762.54 574.424C1762.83 574.936 1763.25 575.395 1763.78 575.8C1764.32 576.195 1764.94 576.499 1765.64 576.712L1765.03 577.736C1764.22 577.491 1763.51 577.128 1762.9 576.648C1762.31 576.157 1761.84 575.581 1761.51 574.92C1761.18 574.259 1761.02 573.544 1761.02 572.776V572.152ZM1757.58 571.448H1765.3V572.52H1757.58V571.448ZM1760.79 569.704H1762.12V571.896H1760.79V569.704ZM1767.08 569.768H1768.41V578.168H1767.08V569.768ZM1768.04 573.336H1770.54V574.44H1768.04V573.336ZM1763.22 579.368H1764.34V579.752C1764.34 580.317 1764.2 580.845 1763.93 581.336C1763.66 581.827 1763.28 582.264 1762.79 582.648C1762.31 583.032 1761.76 583.352 1761.13 583.608C1760.5 583.875 1759.83 584.067 1759.11 584.184L1758.62 583.16C1759.23 583.075 1759.82 582.925 1760.38 582.712C1760.93 582.499 1761.42 582.243 1761.85 581.944C1762.27 581.635 1762.61 581.293 1762.86 580.92C1763.1 580.547 1763.22 580.157 1763.22 579.752V579.368ZM1763.46 579.368H1764.6V579.752C1764.6 580.157 1764.72 580.541 1764.97 580.904C1765.22 581.267 1765.56 581.603 1765.99 581.912C1766.42 582.221 1766.9 582.488 1767.45 582.712C1768 582.925 1768.59 583.08 1769.21 583.176L1768.71 584.2C1768 584.072 1767.32 583.875 1766.7 583.608C1766.07 583.352 1765.51 583.032 1765.02 582.648C1764.54 582.253 1764.16 581.811 1763.88 581.32C1763.6 580.829 1763.46 580.307 1763.46 579.752V579.368ZM1759.18 578.952H1768.65V580.04H1759.18V578.952ZM1782.44 569.768H1783.77V584.248H1782.44V569.768ZM1778.2 571.336H1779.51C1779.51 572.381 1779.38 573.389 1779.13 574.36C1778.88 575.331 1778.49 576.253 1777.96 577.128C1777.42 577.992 1776.73 578.797 1775.88 579.544C1775.02 580.291 1773.99 580.957 1772.77 581.544L1772.07 580.472C1773.47 579.8 1774.62 579.016 1775.53 578.12C1776.43 577.224 1777.1 576.227 1777.54 575.128C1777.98 574.019 1778.2 572.824 1778.2 571.544V571.336ZM1772.74 571.336H1778.76V572.408H1772.74V571.336Z" fill="#1E1E1E"/>
<path d="M1353 460C1353 455.582 1356.58 452 1361 452H1783C1787.42 452 1791 455.582 1791 460V484C1791 488.418 1787.42 492 1783 492H1361C1356.58 492 1353 488.418 1353 484V460Z" fill="white"/>
<path d="M1361 452V452.5H1783V452V451.5H1361V452ZM1791 460H1790.5V484H1791H1791.5V460H1791ZM1783 492V491.5H1361V492V492.5H1783V492ZM1353 484H1353.5V460H1353H1352.5V484H1353ZM1361 492V491.5C1356.86 491.5 1353.5 488.142 1353.5 484H1353H1352.5C1352.5 488.694 1356.31 492.5 1361 492.5V492ZM1791 484H1790.5C1790.5 488.142 1787.14 491.5 1783 491.5V492V492.5C1787.69 492.5 1791.5 488.694 1791.5 484H1791ZM1783 452V452.5C1787.14 452.5 1790.5 455.858 1790.5 460H1791H1791.5C1791.5 455.306 1787.69 451.5 1783 451.5V452ZM1361 452V451.5C1356.31 451.5 1352.5 455.306 1352.5 460H1353H1353.5C1353.5 455.858 1356.86 452.5 1361 452.5V452Z" fill="#D9D9D9"/>
<path d="M1370.89 466.364L1374.34 476.159H1374.48L1377.93 466.364H1379.41L1375.14 478H1373.68L1369.41 466.364H1370.89ZM1382.8 478.205C1382.24 478.205 1381.74 478.1 1381.29 477.892C1380.84 477.68 1380.48 477.375 1380.22 476.977C1379.95 476.576 1379.82 476.091 1379.82 475.523C1379.82 475.023 1379.92 474.617 1380.11 474.307C1380.31 473.992 1380.57 473.746 1380.9 473.568C1381.23 473.39 1381.6 473.258 1381.99 473.17C1382.4 473.08 1382.8 473.008 1383.2 472.955C1383.73 472.886 1384.16 472.835 1384.49 472.801C1384.83 472.763 1385.07 472.701 1385.22 472.614C1385.38 472.527 1385.45 472.375 1385.45 472.159V472.114C1385.45 471.553 1385.3 471.117 1384.99 470.807C1384.69 470.496 1384.23 470.341 1383.61 470.341C1382.97 470.341 1382.47 470.481 1382.11 470.761C1381.74 471.042 1381.49 471.341 1381.34 471.659L1380.07 471.205C1380.3 470.674 1380.6 470.261 1380.98 469.966C1381.36 469.667 1381.78 469.458 1382.23 469.341C1382.68 469.22 1383.13 469.159 1383.57 469.159C1383.85 469.159 1384.17 469.193 1384.53 469.261C1384.9 469.326 1385.26 469.46 1385.6 469.665C1385.94 469.869 1386.23 470.178 1386.45 470.591C1386.68 471.004 1386.8 471.557 1386.8 472.25V478H1385.45V476.818H1385.39C1385.3 477.008 1385.14 477.21 1384.93 477.426C1384.72 477.642 1384.44 477.826 1384.09 477.977C1383.73 478.129 1383.3 478.205 1382.8 478.205ZM1383 477C1383.53 477 1383.98 476.896 1384.34 476.688C1384.71 476.479 1384.98 476.21 1385.17 475.881C1385.36 475.551 1385.45 475.205 1385.45 474.841V473.614C1385.4 473.682 1385.27 473.744 1385.08 473.801C1384.89 473.854 1384.67 473.902 1384.42 473.943C1384.17 473.981 1383.93 474.015 1383.7 474.045C1383.47 474.072 1383.28 474.095 1383.14 474.114C1382.79 474.159 1382.46 474.233 1382.16 474.335C1381.86 474.434 1381.62 474.583 1381.43 474.784C1381.25 474.981 1381.16 475.25 1381.16 475.591C1381.16 476.057 1381.33 476.409 1381.68 476.648C1382.02 476.883 1382.47 477 1383 477ZM1390.58 466.364V478H1389.24V466.364H1390.58ZM1398.54 474.432V469.273H1399.88V478H1398.54V476.523H1398.45C1398.24 476.966 1397.93 477.343 1397.49 477.653C1397.06 477.96 1396.52 478.114 1395.86 478.114C1395.31 478.114 1394.83 477.994 1394.4 477.756C1393.98 477.513 1393.65 477.15 1393.4 476.665C1393.16 476.176 1393.04 475.561 1393.04 474.818V469.273H1394.38V474.727C1394.38 475.364 1394.56 475.871 1394.91 476.25C1395.27 476.629 1395.73 476.818 1396.29 476.818C1396.62 476.818 1396.96 476.733 1397.31 476.562C1397.66 476.392 1397.95 476.131 1398.18 475.778C1398.42 475.426 1398.54 474.977 1398.54 474.432ZM1406 478.182C1405.15 478.182 1404.43 477.996 1403.82 477.625C1403.21 477.25 1402.75 476.727 1402.42 476.057C1402.09 475.383 1401.93 474.598 1401.93 473.705C1401.93 472.811 1402.09 472.023 1402.42 471.341C1402.75 470.655 1403.2 470.121 1403.79 469.739C1404.38 469.352 1405.07 469.159 1405.86 469.159C1406.31 469.159 1406.76 469.235 1407.21 469.386C1407.65 469.538 1408.05 469.784 1408.42 470.125C1408.78 470.462 1409.07 470.909 1409.29 471.466C1409.5 472.023 1409.61 472.708 1409.61 473.523V474.091H1402.88V472.932H1408.25C1408.25 472.439 1408.15 472 1407.95 471.614C1407.76 471.227 1407.48 470.922 1407.12 470.699C1406.76 470.475 1406.34 470.364 1405.86 470.364C1405.33 470.364 1404.86 470.496 1404.47 470.761C1404.09 471.023 1403.79 471.364 1403.58 471.784C1403.37 472.205 1403.27 472.655 1403.27 473.136V473.909C1403.27 474.568 1403.38 475.127 1403.61 475.585C1403.84 476.04 1404.16 476.386 1404.57 476.625C1404.98 476.86 1405.45 476.977 1406 476.977C1406.35 476.977 1406.67 476.928 1406.95 476.83C1407.24 476.727 1407.49 476.576 1407.69 476.375C1407.9 476.17 1408.06 475.917 1408.18 475.614L1409.47 475.977C1409.34 476.417 1409.11 476.803 1408.79 477.136C1408.46 477.466 1408.07 477.723 1407.59 477.909C1407.12 478.091 1406.59 478.182 1406 478.182Z" fill="#B3B3B3"/>
<path d="M1252.31 464.768H1253.64V479.264H1252.31V464.768ZM1246.01 465.888C1246.72 465.888 1247.35 466.096 1247.9 466.512C1248.45 466.917 1248.88 467.499 1249.19 468.256C1249.51 469.013 1249.67 469.904 1249.67 470.928C1249.67 471.952 1249.51 472.843 1249.19 473.6C1248.88 474.357 1248.45 474.944 1247.9 475.36C1247.35 475.776 1246.72 475.984 1246.01 475.984C1245.29 475.984 1244.66 475.776 1244.1 475.36C1243.55 474.944 1243.11 474.357 1242.79 473.6C1242.48 472.843 1242.33 471.952 1242.33 470.928C1242.33 469.904 1242.48 469.013 1242.79 468.256C1243.11 467.499 1243.55 466.917 1244.1 466.512C1244.66 466.096 1245.29 465.888 1246.01 465.888ZM1246.01 467.072C1245.53 467.072 1245.11 467.232 1244.74 467.552C1244.39 467.861 1244.11 468.309 1243.91 468.896C1243.71 469.472 1243.61 470.149 1243.61 470.928C1243.61 471.707 1243.71 472.389 1243.91 472.976C1244.11 473.552 1244.39 474 1244.74 474.32C1245.11 474.64 1245.53 474.8 1246.01 474.8C1246.48 474.8 1246.89 474.64 1247.24 474.32C1247.6 474 1247.89 473.552 1248.09 472.976C1248.29 472.389 1248.39 471.707 1248.39 470.928C1248.39 470.149 1248.29 469.472 1248.09 468.896C1247.89 468.309 1247.6 467.861 1247.24 467.552C1246.89 467.232 1246.48 467.072 1246.01 467.072ZM1257.03 466.448H1262.55V475.36H1257.03V466.448ZM1261.3 467.504H1258.28V474.304H1261.3V467.504ZM1267.54 464.768H1268.82V479.248H1267.54V464.768ZM1261.89 470.224H1265.22V471.312H1261.89V470.224ZM1264.66 465.072H1265.93V478.512H1264.66V465.072ZM1275.3 465.296C1276.03 465.296 1276.67 465.435 1277.22 465.712C1277.79 465.979 1278.23 466.352 1278.55 466.832C1278.87 467.312 1279.03 467.872 1279.03 468.512C1279.03 469.141 1278.87 469.701 1278.55 470.192C1278.23 470.672 1277.79 471.045 1277.22 471.312C1276.67 471.579 1276.03 471.712 1275.3 471.712C1274.59 471.712 1273.95 471.579 1273.38 471.312C1272.82 471.045 1272.37 470.672 1272.04 470.192C1271.72 469.701 1271.56 469.141 1271.56 468.512C1271.56 467.872 1271.72 467.312 1272.04 466.832C1272.37 466.352 1272.82 465.979 1273.38 465.712C1273.95 465.435 1274.59 465.296 1275.3 465.296ZM1275.3 466.4C1274.83 466.4 1274.41 466.491 1274.04 466.672C1273.67 466.843 1273.39 467.088 1273.17 467.408C1272.96 467.728 1272.85 468.096 1272.85 468.512C1272.85 468.928 1272.96 469.296 1273.17 469.616C1273.39 469.925 1273.67 470.171 1274.04 470.352C1274.41 470.533 1274.83 470.624 1275.3 470.624C1275.77 470.624 1276.19 470.533 1276.55 470.352C1276.92 470.171 1277.22 469.925 1277.43 469.616C1277.64 469.296 1277.75 468.928 1277.75 468.512C1277.75 468.096 1277.64 467.728 1277.43 467.408C1277.22 467.088 1276.92 466.843 1276.55 466.672C1276.19 466.491 1275.77 466.4 1275.3 466.4ZM1281.77 464.768H1283.09V472.176H1281.77V464.768ZM1273.73 472.896H1283.09V476.4H1275.06V478.576H1273.78V475.408H1281.78V473.952H1273.73V472.896ZM1273.78 477.984H1283.59V479.056H1273.78V477.984Z" fill="#1E1E1E"/>
<mask id="path-17-inside-1_85_1558" fill="white">
<path d="M1246 620C1246 615.582 1249.58 612 1254 612H1786C1790.42 612 1794 615.582 1794 620V644C1794 648.418 1790.42 652 1786 652H1254C1249.58 652 1246 648.418 1246 644V620Z"/>
</mask>
<path d="M1246 620C1246 615.582 1249.58 612 1254 612H1786C1790.42 612 1794 615.582 1794 620V644C1794 648.418 1790.42 652 1786 652H1254C1249.58 652 1246 648.418 1246 644V620Z" fill="#00AE1A" fill-opacity="0.46"/>
<path d="M1254 612V613H1786V612V611H1254V612ZM1794 620H1793V644H1794H1795V620H1794ZM1786 652V651H1254V652V653H1786V652ZM1246 644H1247V620H1246H1245V644H1246ZM1254 652V651C1250.13 651 1247 647.866 1247 644H1246H1245C1245 648.971 1249.03 653 1254 653V652ZM1794 644H1793C1793 647.866 1789.87 651 1786 651V652V653C1790.97 653 1795 648.971 1795 644H1794ZM1786 612V613C1789.87 613 1793 616.134 1793 620H1794H1795C1795 615.029 1790.97 611 1786 611V612ZM1254 612V611C1249.03 611 1245 615.029 1245 620H1246H1247C1247 616.134 1250.13 613 1254 613V612Z" fill="#00AE1A" fill-opacity="0.46" mask="url(#path-17-inside-1_85_1558)"/>
<path d="M1509.59 631.568H1510.9V633.408H1509.59V631.568ZM1515.69 624.784H1517.02V634.48H1515.69V624.784ZM1516.46 629.152H1519.13V630.256H1516.46V629.152ZM1505.88 634.064L1505.72 632.992C1506.58 632.992 1507.53 632.987 1508.55 632.976C1509.59 632.955 1510.64 632.912 1511.72 632.848C1512.8 632.784 1513.83 632.683 1514.82 632.544L1514.92 633.488C1513.9 633.669 1512.85 633.803 1511.77 633.888C1510.7 633.963 1509.66 634.011 1508.65 634.032C1507.65 634.053 1506.72 634.064 1505.88 634.064ZM1507.5 635.216H1517.02V639.248H1515.69V636.272H1507.5V635.216ZM1506.09 626.08H1514.39V627.088H1506.09V626.08ZM1510.23 627.632C1511.26 627.632 1512.07 627.824 1512.68 628.208C1513.3 628.592 1513.61 629.115 1513.61 629.776C1513.61 630.437 1513.3 630.96 1512.68 631.344C1512.07 631.728 1511.26 631.92 1510.23 631.92C1509.22 631.92 1508.4 631.728 1507.78 631.344C1507.17 630.96 1506.86 630.437 1506.86 629.776C1506.86 629.115 1507.17 628.592 1507.78 628.208C1508.4 627.824 1509.22 627.632 1510.23 627.632ZM1510.23 628.56C1509.59 628.56 1509.08 628.667 1508.7 628.88C1508.31 629.093 1508.12 629.392 1508.12 629.776C1508.12 630.139 1508.31 630.437 1508.7 630.672C1509.08 630.896 1509.59 631.008 1510.23 631.008C1510.87 631.008 1511.38 630.896 1511.77 630.672C1512.15 630.437 1512.34 630.139 1512.34 629.776C1512.34 629.392 1512.15 629.093 1511.77 628.88C1511.38 628.667 1510.87 628.56 1510.23 628.56ZM1509.59 624.656H1510.9V626.576H1509.59V624.656ZM1531.05 624.784H1532.37V635.344H1531.05V624.784ZM1523.08 637.84H1532.82V638.928H1523.08V637.84ZM1523.08 634.272H1524.41V638.208H1523.08V634.272ZM1524.61 625.792C1525.34 625.792 1525.99 625.941 1526.55 626.24C1527.12 626.539 1527.56 626.96 1527.89 627.504C1528.23 628.037 1528.39 628.651 1528.39 629.344C1528.39 630.037 1528.23 630.656 1527.89 631.2C1527.56 631.733 1527.12 632.155 1526.55 632.464C1525.99 632.763 1525.34 632.912 1524.61 632.912C1523.9 632.912 1523.25 632.763 1522.68 632.464C1522.11 632.155 1521.67 631.733 1521.33 631.2C1521 630.656 1520.84 630.037 1520.84 629.344C1520.84 628.651 1521 628.037 1521.33 627.504C1521.67 626.96 1522.11 626.539 1522.68 626.24C1523.25 625.941 1523.9 625.792 1524.61 625.792ZM1524.61 626.944C1524.15 626.944 1523.72 627.045 1523.35 627.248C1522.98 627.451 1522.68 627.733 1522.45 628.096C1522.24 628.459 1522.13 628.875 1522.13 629.344C1522.13 629.824 1522.24 630.245 1522.45 630.608C1522.68 630.96 1522.98 631.237 1523.35 631.44C1523.72 631.643 1524.15 631.744 1524.61 631.744C1525.08 631.744 1525.51 631.643 1525.88 631.44C1526.26 631.237 1526.56 630.96 1526.77 630.608C1526.99 630.245 1527.09 629.824 1527.09 629.344C1527.09 628.875 1526.99 628.459 1526.77 628.096C1526.56 627.733 1526.26 627.451 1525.88 627.248C1525.51 627.045 1525.08 626.944 1524.61 626.944Z" fill="#F5F5F5"/>
<path d="M1444.44 331.748C1446.05 331.748 1447.46 332.216 1448.69 333.152C1449.91 334.064 1450.87 335.372 1451.57 337.076C1452.26 338.78 1452.61 340.784 1452.61 343.088C1452.61 345.392 1452.26 347.396 1451.57 349.1C1450.87 350.804 1449.91 352.124 1448.69 353.06C1447.46 353.996 1446.05 354.464 1444.44 354.464C1442.86 354.464 1441.44 353.996 1440.19 353.06C1438.97 352.124 1438.01 350.804 1437.31 349.1C1436.62 347.396 1436.27 345.392 1436.27 343.088C1436.27 340.784 1436.62 338.78 1437.31 337.076C1438.01 335.372 1438.97 334.064 1440.19 333.152C1441.44 332.216 1442.86 331.748 1444.44 331.748ZM1444.44 334.412C1443.41 334.412 1442.48 334.772 1441.67 335.492C1440.88 336.188 1440.25 337.196 1439.8 338.516C1439.34 339.812 1439.11 341.336 1439.11 343.088C1439.11 344.84 1439.34 346.376 1439.8 347.696C1440.25 348.992 1440.88 350 1441.67 350.72C1442.48 351.44 1443.42 351.8 1444.48 351.8C1445.51 351.8 1446.42 351.44 1447.21 350.72C1448.03 350 1448.65 348.992 1449.08 347.696C1449.54 346.376 1449.77 344.84 1449.77 343.088C1449.77 341.336 1449.54 339.812 1449.08 338.516C1448.65 337.196 1448.03 336.188 1447.21 335.492C1446.42 334.772 1445.5 334.412 1444.44 334.412ZM1457.83 329.228H1460.82V361.808H1457.83V329.228ZM1460.14 342.224H1466.15V344.744H1460.14V342.224ZM1492.57 329.228H1495.56V361.844H1492.57V329.228ZM1478.39 331.748C1479.99 331.748 1481.41 332.216 1482.63 333.152C1483.88 334.064 1484.85 335.372 1485.55 337.076C1486.27 338.78 1486.63 340.784 1486.63 343.088C1486.63 345.392 1486.27 347.396 1485.55 349.1C1484.85 350.804 1483.88 352.124 1482.63 353.06C1481.41 353.996 1479.99 354.464 1478.39 354.464C1476.78 354.464 1475.35 353.996 1474.1 353.06C1472.85 352.124 1471.87 350.804 1471.15 349.1C1470.45 347.396 1470.11 345.392 1470.11 343.088C1470.11 340.784 1470.45 338.78 1471.15 337.076C1471.87 335.372 1472.85 334.064 1474.1 333.152C1475.35 332.216 1476.78 331.748 1478.39 331.748ZM1478.39 334.412C1477.31 334.412 1476.36 334.772 1475.54 335.492C1474.75 336.188 1474.13 337.196 1473.67 338.516C1473.21 339.812 1472.99 341.336 1472.99 343.088C1472.99 344.84 1473.21 346.376 1473.67 347.696C1474.13 348.992 1474.75 350 1475.54 350.72C1476.36 351.44 1477.31 351.8 1478.39 351.8C1479.44 351.8 1480.37 351.44 1481.16 350.72C1481.97 350 1482.61 348.992 1483.07 347.696C1483.52 346.376 1483.75 344.84 1483.75 343.088C1483.75 341.336 1483.52 339.812 1483.07 338.516C1482.61 337.196 1481.97 336.188 1481.16 335.492C1480.37 334.772 1479.44 334.412 1478.39 334.412ZM1525.69 329.228H1528.67V361.844H1525.69V329.228ZM1504.12 351.224H1506.75C1508.91 351.224 1510.85 351.2 1512.58 351.152C1514.31 351.104 1515.94 350.996 1517.48 350.828C1519.04 350.66 1520.62 350.432 1522.23 350.144L1522.52 352.664C1520.89 352.976 1519.28 353.216 1517.69 353.384C1516.11 353.528 1514.44 353.636 1512.69 353.708C1510.94 353.756 1508.96 353.78 1506.75 353.78H1504.12V351.224ZM1504.12 332.324H1519.49V334.808H1507.11V352.16H1504.12V332.324ZM1553.41 334.592H1555.82V335.996C1555.82 337.844 1555.44 339.548 1554.67 341.108C1553.93 342.668 1552.87 344.024 1551.5 345.176C1550.14 346.328 1548.54 347.204 1546.72 347.804L1545.28 345.428C1546.88 344.924 1548.3 344.204 1549.52 343.268C1550.75 342.332 1551.7 341.24 1552.37 339.992C1553.06 338.744 1553.41 337.412 1553.41 335.996V334.592ZM1553.92 334.592H1556.36V335.996C1556.36 337.292 1556.69 338.528 1557.34 339.704C1558.01 340.856 1558.94 341.888 1560.14 342.8C1561.34 343.688 1562.74 344.372 1564.32 344.852L1562.95 347.156C1561.13 346.604 1559.53 345.788 1558.16 344.708C1556.82 343.604 1555.78 342.308 1555.03 340.82C1554.29 339.332 1553.92 337.724 1553.92 335.996V334.592ZM1546.18 333.008H1563.56V335.42H1546.18V333.008ZM1553.41 329.084H1556.4V334.016H1553.41V329.084ZM1567.56 329.228H1570.55V348.128H1567.56V329.228ZM1569.72 337.256H1575.34V339.74H1569.72V337.256ZM1558.88 350.828H1561.4V351.692C1561.4 352.964 1561.09 354.152 1560.47 355.256C1559.87 356.36 1559.02 357.344 1557.91 358.208C1556.83 359.072 1555.58 359.792 1554.17 360.368C1552.75 360.968 1551.24 361.4 1549.63 361.664L1548.52 359.36C1549.91 359.168 1551.23 358.832 1552.48 358.352C1553.72 357.872 1554.83 357.296 1555.79 356.624C1556.75 355.928 1557.5 355.16 1558.06 354.32C1558.61 353.48 1558.88 352.604 1558.88 351.692V350.828ZM1559.42 350.828H1561.98V351.692C1561.98 352.604 1562.26 353.468 1562.81 354.284C1563.38 355.1 1564.15 355.856 1565.11 356.552C1566.07 357.248 1567.16 357.848 1568.39 358.352C1569.64 358.832 1570.96 359.18 1572.35 359.396L1571.23 361.7C1569.62 361.412 1568.11 360.968 1566.7 360.368C1565.28 359.792 1564.02 359.072 1562.92 358.208C1561.84 357.32 1560.98 356.324 1560.36 355.22C1559.74 354.116 1559.42 352.94 1559.42 351.692V350.828ZM1549.78 349.892H1571.09V352.34H1549.78V349.892ZM1602.12 329.228H1605.11V361.808H1602.12V329.228ZM1592.58 332.756H1595.53C1595.53 335.108 1595.24 337.376 1594.67 339.56C1594.11 341.744 1593.24 343.82 1592.04 345.788C1590.84 347.732 1589.28 349.544 1587.36 351.224C1585.44 352.904 1583.11 354.404 1580.37 355.724L1578.79 353.312C1581.93 351.8 1584.53 350.036 1586.57 348.02C1588.61 346.004 1590.12 343.76 1591.1 341.288C1592.09 338.792 1592.58 336.104 1592.58 333.224V332.756ZM1580.3 332.756H1593.84V335.168H1580.3V332.756Z" fill="black"/>
<rect x="0.5" y="68.5" width="1105" height="1011" fill="#FFFFF2" stroke="#FFFFF2"/>
<rect x="398.5" y="401.5" width="309" height="278" stroke="black"/>
<path d="M468.636 563V516.455H474.273V558H495.909V563H468.636ZM542.097 539.727C542.097 544.636 541.21 548.879 539.438 552.455C537.665 556.03 535.233 558.788 532.142 560.727C529.051 562.667 525.521 563.636 521.551 563.636C517.581 563.636 514.051 562.667 510.96 560.727C507.869 558.788 505.438 556.03 503.665 552.455C501.892 548.879 501.006 544.636 501.006 539.727C501.006 534.818 501.892 530.576 503.665 527C505.438 523.424 507.869 520.667 510.96 518.727C514.051 516.788 517.581 515.818 521.551 515.818C525.521 515.818 529.051 516.788 532.142 518.727C535.233 520.667 537.665 523.424 539.438 527C541.21 530.576 542.097 534.818 542.097 539.727ZM536.642 539.727C536.642 535.697 535.968 532.295 534.619 529.523C533.286 526.75 531.475 524.652 529.188 523.227C526.915 521.803 524.369 521.091 521.551 521.091C518.733 521.091 516.18 521.803 513.892 523.227C511.619 524.652 509.809 526.75 508.46 529.523C507.127 532.295 506.46 535.697 506.46 539.727C506.46 543.758 507.127 547.159 508.46 549.932C509.809 552.705 511.619 554.803 513.892 556.227C516.18 557.652 518.733 558.364 521.551 558.364C524.369 558.364 526.915 557.652 529.188 556.227C531.475 554.803 533.286 552.705 534.619 549.932C535.968 547.159 536.642 543.758 536.642 539.727ZM583.392 531C582.892 529.47 582.233 528.098 581.415 526.886C580.612 525.659 579.65 524.614 578.528 523.75C577.422 522.886 576.165 522.227 574.756 521.773C573.347 521.318 571.801 521.091 570.119 521.091C567.362 521.091 564.854 521.803 562.597 523.227C560.339 524.652 558.544 526.75 557.21 529.523C555.877 532.295 555.21 535.697 555.21 539.727C555.21 543.758 555.884 547.159 557.233 549.932C558.581 552.705 560.407 554.803 562.71 556.227C565.013 557.652 567.604 558.364 570.483 558.364C573.15 558.364 575.498 557.795 577.528 556.659C579.574 555.508 581.165 553.886 582.301 551.795C583.453 549.689 584.028 547.212 584.028 544.364L585.756 544.727H571.756V539.727H589.483V544.727C589.483 548.561 588.665 551.894 587.028 554.727C585.407 557.561 583.165 559.758 580.301 561.318C577.453 562.864 574.18 563.636 570.483 563.636C566.362 563.636 562.741 562.667 559.619 560.727C556.513 558.788 554.089 556.03 552.347 552.455C550.619 548.879 549.756 544.636 549.756 539.727C549.756 536.045 550.248 532.735 551.233 529.795C552.233 526.841 553.642 524.326 555.46 522.25C557.278 520.174 559.43 518.583 561.915 517.477C564.4 516.371 567.134 515.818 570.119 515.818C572.574 515.818 574.862 516.189 576.983 516.932C579.119 517.659 581.021 518.697 582.688 520.045C584.369 521.379 585.771 522.977 586.892 524.841C588.013 526.689 588.786 528.742 589.21 531H583.392ZM638.409 539.727C638.409 544.636 637.523 548.879 635.75 552.455C633.977 556.03 631.545 558.788 628.455 560.727C625.364 562.667 621.833 563.636 617.864 563.636C613.894 563.636 610.364 562.667 607.273 560.727C604.182 558.788 601.75 556.03 599.977 552.455C598.205 548.879 597.318 544.636 597.318 539.727C597.318 534.818 598.205 530.576 599.977 527C601.75 523.424 604.182 520.667 607.273 518.727C610.364 516.788 613.894 515.818 617.864 515.818C621.833 515.818 625.364 516.788 628.455 518.727C631.545 520.667 633.977 523.424 635.75 527C637.523 530.576 638.409 534.818 638.409 539.727ZM632.955 539.727C632.955 535.697 632.28 532.295 630.932 529.523C629.598 526.75 627.788 524.652 625.5 523.227C623.227 521.803 620.682 521.091 617.864 521.091C615.045 521.091 612.492 521.803 610.205 523.227C607.932 524.652 606.121 526.75 604.773 529.523C603.439 532.295 602.773 535.697 602.773 539.727C602.773 543.758 603.439 547.159 604.773 549.932C606.121 552.705 607.932 554.803 610.205 556.227C612.492 557.652 615.045 558.364 617.864 558.364C620.682 558.364 623.227 557.652 625.5 556.227C627.788 554.803 629.598 552.705 630.932 549.932C632.28 547.159 632.955 543.758 632.955 539.727Z" fill="black"/>
<path d="M1683.5 571.5V584" stroke="black"/>
<path d="M1353 512C1353 507.582 1356.58 504 1361 504H1783C1787.42 504 1791 507.582 1791 512V547C1791 551.418 1787.42 555 1783 555H1361C1356.58 555 1353 551.418 1353 547V512Z" fill="white"/>
<path d="M1361 504V504.5H1783V504V503.5H1361V504ZM1791 512H1790.5V547H1791H1791.5V512H1791ZM1783 555V554.5H1361V555V555.5H1783V555ZM1353 547H1353.5V512H1353H1352.5V547H1353ZM1361 555V554.5C1356.86 554.5 1353.5 551.142 1353.5 547H1353H1352.5C1352.5 551.694 1356.31 555.5 1361 555.5V555ZM1791 547H1790.5C1790.5 551.142 1787.14 554.5 1783 554.5V555V555.5C1787.69 555.5 1791.5 551.694 1791.5 547H1791ZM1783 504V504.5C1787.14 504.5 1790.5 507.858 1790.5 512H1791H1791.5C1791.5 507.306 1787.69 503.5 1783 503.5V504ZM1361 504V503.5C1356.31 503.5 1352.5 507.306 1352.5 512H1353H1353.5C1353.5 507.858 1356.86 504.5 1361 504.5V504Z" fill="#D9D9D9"/>
<path d="M1370.89 523.864L1374.34 533.659H1374.48L1377.93 523.864H1379.41L1375.14 535.5H1373.68L1369.41 523.864H1370.89ZM1382.8 535.705C1382.24 535.705 1381.74 535.6 1381.29 535.392C1380.84 535.18 1380.48 534.875 1380.22 534.477C1379.95 534.076 1379.82 533.591 1379.82 533.023C1379.82 532.523 1379.92 532.117 1380.11 531.807C1380.31 531.492 1380.57 531.246 1380.9 531.068C1381.23 530.89 1381.6 530.758 1381.99 530.67C1382.4 530.58 1382.8 530.508 1383.2 530.455C1383.73 530.386 1384.16 530.335 1384.49 530.301C1384.83 530.263 1385.07 530.201 1385.22 530.114C1385.38 530.027 1385.45 529.875 1385.45 529.659V529.614C1385.45 529.053 1385.3 528.617 1384.99 528.307C1384.69 527.996 1384.23 527.841 1383.61 527.841C1382.97 527.841 1382.47 527.981 1382.11 528.261C1381.74 528.542 1381.49 528.841 1381.34 529.159L1380.07 528.705C1380.3 528.174 1380.6 527.761 1380.98 527.466C1381.36 527.167 1381.78 526.958 1382.23 526.841C1382.68 526.72 1383.13 526.659 1383.57 526.659C1383.85 526.659 1384.17 526.693 1384.53 526.761C1384.9 526.826 1385.26 526.96 1385.6 527.165C1385.94 527.369 1386.23 527.678 1386.45 528.091C1386.68 528.504 1386.8 529.057 1386.8 529.75V535.5H1385.45V534.318H1385.39C1385.3 534.508 1385.14 534.71 1384.93 534.926C1384.72 535.142 1384.44 535.326 1384.09 535.477C1383.73 535.629 1383.3 535.705 1382.8 535.705ZM1383 534.5C1383.53 534.5 1383.98 534.396 1384.34 534.188C1384.71 533.979 1384.98 533.71 1385.17 533.381C1385.36 533.051 1385.45 532.705 1385.45 532.341V531.114C1385.4 531.182 1385.27 531.244 1385.08 531.301C1384.89 531.354 1384.67 531.402 1384.42 531.443C1384.17 531.481 1383.93 531.515 1383.7 531.545C1383.47 531.572 1383.28 531.595 1383.14 531.614C1382.79 531.659 1382.46 531.733 1382.16 531.835C1381.86 531.934 1381.62 532.083 1381.43 532.284C1381.25 532.481 1381.16 532.75 1381.16 533.091C1381.16 533.557 1381.33 533.909 1381.68 534.148C1382.02 534.383 1382.47 534.5 1383 534.5ZM1390.58 523.864V535.5H1389.24V523.864H1390.58ZM1398.54 531.932V526.773H1399.88V535.5H1398.54V534.023H1398.45C1398.24 534.466 1397.93 534.843 1397.49 535.153C1397.06 535.46 1396.52 535.614 1395.86 535.614C1395.31 535.614 1394.83 535.494 1394.4 535.256C1393.98 535.013 1393.65 534.65 1393.4 534.165C1393.16 533.676 1393.04 533.061 1393.04 532.318V526.773H1394.38V532.227C1394.38 532.864 1394.56 533.371 1394.91 533.75C1395.27 534.129 1395.73 534.318 1396.29 534.318C1396.62 534.318 1396.96 534.233 1397.31 534.062C1397.66 533.892 1397.95 533.631 1398.18 533.278C1398.42 532.926 1398.54 532.477 1398.54 531.932ZM1406 535.682C1405.15 535.682 1404.43 535.496 1403.82 535.125C1403.21 534.75 1402.75 534.227 1402.42 533.557C1402.09 532.883 1401.93 532.098 1401.93 531.205C1401.93 530.311 1402.09 529.523 1402.42 528.841C1402.75 528.155 1403.2 527.621 1403.79 527.239C1404.38 526.852 1405.07 526.659 1405.86 526.659C1406.31 526.659 1406.76 526.735 1407.21 526.886C1407.65 527.038 1408.05 527.284 1408.42 527.625C1408.78 527.962 1409.07 528.409 1409.29 528.966C1409.5 529.523 1409.61 530.208 1409.61 531.023V531.591H1402.88V530.432H1408.25C1408.25 529.939 1408.15 529.5 1407.95 529.114C1407.76 528.727 1407.48 528.422 1407.12 528.199C1406.76 527.975 1406.34 527.864 1405.86 527.864C1405.33 527.864 1404.86 527.996 1404.47 528.261C1404.09 528.523 1403.79 528.864 1403.58 529.284C1403.37 529.705 1403.27 530.155 1403.27 530.636V531.409C1403.27 532.068 1403.38 532.627 1403.61 533.085C1403.84 533.54 1404.16 533.886 1404.57 534.125C1404.98 534.36 1405.45 534.477 1406 534.477C1406.35 534.477 1406.67 534.428 1406.95 534.33C1407.24 534.227 1407.49 534.076 1407.69 533.875C1407.9 533.67 1408.06 533.417 1408.18 533.114L1409.47 533.477C1409.34 533.917 1409.11 534.303 1408.79 534.636C1408.46 534.966 1408.07 535.223 1407.59 535.409C1407.12 535.591 1406.59 535.682 1406 535.682Z" fill="#B3B3B3"/>
<path d="M1669 535.659C1668.14 535.659 1667.41 535.426 1666.81 534.96C1666.21 534.491 1665.75 533.811 1665.43 532.92C1665.11 532.027 1664.95 530.947 1664.95 529.682C1664.95 528.424 1665.11 527.35 1665.43 526.46C1665.75 525.566 1666.22 524.884 1666.82 524.415C1667.42 523.941 1668.15 523.705 1669 523.705C1669.85 523.705 1670.57 523.941 1671.18 524.415C1671.78 524.884 1672.24 525.566 1672.56 526.46C1672.88 527.35 1673.05 528.424 1673.05 529.682C1673.05 530.947 1672.89 532.027 1672.57 532.92C1672.25 533.811 1671.79 534.491 1671.19 534.96C1670.59 535.426 1669.86 535.659 1669 535.659ZM1669 534.409C1669.85 534.409 1670.51 534 1670.98 533.182C1671.45 532.364 1671.68 531.197 1671.68 529.682C1671.68 528.674 1671.57 527.816 1671.36 527.108C1671.15 526.4 1670.84 525.86 1670.44 525.489C1670.04 525.117 1669.56 524.932 1669 524.932C1668.16 524.932 1667.5 525.347 1667.03 526.176C1666.55 527.002 1666.32 528.17 1666.32 529.682C1666.32 530.689 1666.42 531.545 1666.64 532.25C1666.85 532.955 1667.15 533.491 1667.55 533.858C1667.95 534.225 1668.44 534.409 1669 534.409ZM1679.14 535.659C1678.39 535.659 1677.72 535.53 1677.13 535.273C1676.55 535.015 1676.08 534.657 1675.74 534.199C1675.4 533.737 1675.21 533.201 1675.18 532.591H1676.61C1676.64 532.966 1676.77 533.29 1677 533.562C1677.23 533.831 1677.52 534.04 1677.89 534.188C1678.26 534.335 1678.67 534.409 1679.11 534.409C1679.61 534.409 1680.06 534.322 1680.44 534.148C1680.83 533.973 1681.13 533.731 1681.35 533.42C1681.57 533.11 1681.68 532.75 1681.68 532.341C1681.68 531.913 1681.58 531.536 1681.36 531.21C1681.15 530.881 1680.84 530.623 1680.43 530.438C1680.02 530.252 1679.52 530.159 1678.93 530.159H1678V528.909H1678.93C1679.39 528.909 1679.8 528.826 1680.15 528.659C1680.5 528.492 1680.77 528.258 1680.97 527.955C1681.17 527.652 1681.27 527.295 1681.27 526.886C1681.27 526.492 1681.19 526.15 1681.01 525.858C1680.84 525.566 1680.59 525.339 1680.27 525.176C1679.96 525.013 1679.59 524.932 1679.16 524.932C1678.76 524.932 1678.38 525.006 1678.02 525.153C1677.67 525.297 1677.38 525.508 1677.16 525.784C1676.94 526.057 1676.81 526.386 1676.8 526.773H1675.43C1675.45 526.163 1675.64 525.629 1675.98 525.17C1676.33 524.708 1676.78 524.348 1677.34 524.091C1677.9 523.833 1678.51 523.705 1679.18 523.705C1679.9 523.705 1680.52 523.85 1681.03 524.142C1681.55 524.43 1681.95 524.811 1682.22 525.284C1682.5 525.758 1682.64 526.269 1682.64 526.818C1682.64 527.473 1682.46 528.032 1682.12 528.494C1681.78 528.956 1681.31 529.277 1680.73 529.455V529.545C1681.46 529.667 1682.04 529.979 1682.45 530.483C1682.86 530.983 1683.07 531.602 1683.07 532.341C1683.07 532.973 1682.9 533.542 1682.55 534.045C1682.21 534.545 1681.74 534.939 1681.15 535.227C1680.56 535.515 1679.89 535.659 1679.14 535.659ZM1686.39 534.011C1686.11 534.011 1685.87 533.911 1685.67 533.71C1685.47 533.509 1685.37 533.269 1685.37 532.989C1685.37 532.708 1685.47 532.468 1685.67 532.267C1685.87 532.066 1686.11 531.966 1686.39 531.966C1686.67 531.966 1686.91 532.066 1687.11 532.267C1687.31 532.468 1687.41 532.708 1687.41 532.989C1687.41 533.174 1687.37 533.345 1687.27 533.5C1687.18 533.655 1687.06 533.78 1686.9 533.875C1686.75 533.966 1686.58 534.011 1686.39 534.011ZM1686.39 528.125C1686.11 528.125 1685.87 528.025 1685.67 527.824C1685.47 527.623 1685.37 527.383 1685.37 527.102C1685.37 526.822 1685.47 526.581 1685.67 526.381C1685.87 526.18 1686.11 526.08 1686.39 526.08C1686.67 526.08 1686.91 526.18 1687.11 526.381C1687.31 526.581 1687.41 526.822 1687.41 527.102C1687.41 527.288 1687.37 527.458 1687.27 527.614C1687.18 527.769 1687.06 527.894 1686.9 527.989C1686.75 528.08 1686.58 528.125 1686.39 528.125ZM1693.59 535.659C1692.74 535.659 1692.01 535.426 1691.41 534.96C1690.8 534.491 1690.34 533.811 1690.03 532.92C1689.71 532.027 1689.55 530.947 1689.55 529.682C1689.55 528.424 1689.71 527.35 1690.03 526.46C1690.35 525.566 1690.81 524.884 1691.41 524.415C1692.02 523.941 1692.75 523.705 1693.59 523.705C1694.44 523.705 1695.17 523.941 1695.77 524.415C1696.38 524.884 1696.84 525.566 1697.16 526.46C1697.48 527.35 1697.64 528.424 1697.64 529.682C1697.64 530.947 1697.48 532.027 1697.16 532.92C1696.84 533.811 1696.38 534.491 1695.78 534.96C1695.18 535.426 1694.45 535.659 1693.59 535.659ZM1693.59 534.409C1694.44 534.409 1695.1 534 1695.57 533.182C1696.04 532.364 1696.28 531.197 1696.28 529.682C1696.28 528.674 1696.17 527.816 1695.95 527.108C1695.74 526.4 1695.43 525.86 1695.03 525.489C1694.63 525.117 1694.15 524.932 1693.59 524.932C1692.75 524.932 1692.1 525.347 1691.62 526.176C1691.15 527.002 1690.91 528.17 1690.91 529.682C1690.91 530.689 1691.02 531.545 1691.23 532.25C1691.44 532.955 1691.75 533.491 1692.14 533.858C1692.55 534.225 1693.03 534.409 1693.59 534.409ZM1703.59 535.659C1702.74 535.659 1702.01 535.426 1701.41 534.96C1700.8 534.491 1700.34 533.811 1700.03 532.92C1699.71 532.027 1699.55 530.947 1699.55 529.682C1699.55 528.424 1699.71 527.35 1700.03 526.46C1700.35 525.566 1700.81 524.884 1701.41 524.415C1702.02 523.941 1702.75 523.705 1703.59 523.705C1704.44 523.705 1705.17 523.941 1705.77 524.415C1706.38 524.884 1706.84 525.566 1707.16 526.46C1707.48 527.35 1707.64 528.424 1707.64 529.682C1707.64 530.947 1707.48 532.027 1707.16 532.92C1706.84 533.811 1706.38 534.491 1705.78 534.96C1705.18 535.426 1704.45 535.659 1703.59 535.659ZM1703.59 534.409C1704.44 534.409 1705.1 534 1705.57 533.182C1706.04 532.364 1706.28 531.197 1706.28 529.682C1706.28 528.674 1706.17 527.816 1705.95 527.108C1705.74 526.4 1705.43 525.86 1705.03 525.489C1704.63 525.117 1704.15 524.932 1703.59 524.932C1702.75 524.932 1702.1 525.347 1701.62 526.176C1701.15 527.002 1700.91 528.17 1700.91 529.682C1700.91 530.689 1701.02 531.545 1701.23 532.25C1701.44 532.955 1701.75 533.491 1702.14 533.858C1702.55 534.225 1703.03 534.409 1703.59 534.409Z" fill="#B3B3B3"/>
<mask id="path-29-inside-2_85_1558" fill="white">
<path d="M1715 524C1715 519.582 1718.58 516 1723 516H1767C1771.42 516 1775 519.582 1775 524V535C1775 539.418 1771.42 543 1767 543H1723C1718.58 543 1715 539.418 1715 535V524Z"/>
</mask>
<path d="M1715 524C1715 519.582 1718.58 516 1723 516H1767C1771.42 516 1775 519.582 1775 524V535C1775 539.418 1771.42 543 1767 543H1723C1718.58 543 1715 539.418 1715 535V524Z" fill="#00AE1A" fill-opacity="0.46"/>
<path d="M1723 516V517H1767V516V515H1723V516ZM1775 524H1774V535H1775H1776V524H1775ZM1767 543V542H1723V543V544H1767V543ZM1715 535H1716V524H1715H1714V535H1715ZM1723 543V542C1719.13 542 1716 538.866 1716 535H1715H1714C1714 539.971 1718.03 544 1723 544V543ZM1775 535H1774C1774 538.866 1770.87 542 1767 542V543V544C1771.97 544 1776 539.971 1776 535H1775ZM1767 516V517C1770.87 517 1774 520.134 1774 524H1775H1776C1776 519.029 1771.97 515 1767 515V516ZM1723 516V515C1718.03 515 1714 519.029 1714 524H1715H1716C1716 520.134 1719.13 517 1723 517V516Z" fill="#00AE1A" fill-opacity="0.46" mask="url(#path-29-inside-2_85_1558)"/>
<path d="M1737.66 529.578H1738.56V530.843H1737.66V529.578ZM1741.85 524.914H1742.76V531.58H1741.85V524.914ZM1742.38 527.917H1744.21V528.676H1742.38V527.917ZM1735.11 531.294L1735 530.557C1735.59 530.557 1736.24 530.553 1736.94 530.546C1737.65 530.531 1738.38 530.502 1739.12 530.458C1739.86 530.414 1740.57 530.344 1741.25 530.249L1741.32 530.898C1740.62 531.023 1739.89 531.114 1739.15 531.173C1738.42 531.224 1737.7 531.257 1737.01 531.272C1736.32 531.287 1735.68 531.294 1735.11 531.294ZM1736.22 532.086H1742.76V534.858H1741.85V532.812H1736.22V532.086ZM1735.25 525.805H1740.96V526.498H1735.25V525.805ZM1738.1 526.872C1738.8 526.872 1739.36 527.004 1739.78 527.268C1740.21 527.532 1740.42 527.891 1740.42 528.346C1740.42 528.801 1740.21 529.16 1739.78 529.424C1739.36 529.688 1738.8 529.82 1738.1 529.82C1737.4 529.82 1736.84 529.688 1736.41 529.424C1735.99 529.16 1735.78 528.801 1735.78 528.346C1735.78 527.891 1735.99 527.532 1736.41 527.268C1736.84 527.004 1737.4 526.872 1738.1 526.872ZM1738.1 527.51C1737.66 527.51 1737.31 527.583 1737.04 527.73C1736.78 527.877 1736.65 528.082 1736.65 528.346C1736.65 528.595 1736.78 528.801 1737.04 528.962C1737.31 529.116 1737.66 529.193 1738.1 529.193C1738.54 529.193 1738.89 529.116 1739.15 528.962C1739.42 528.801 1739.55 528.595 1739.55 528.346C1739.55 528.082 1739.42 527.877 1739.15 527.73C1738.89 527.583 1738.54 527.51 1738.1 527.51ZM1737.66 524.826H1738.56V526.146H1737.66V524.826ZM1752.41 524.914H1753.32V532.174H1752.41V524.914ZM1746.93 533.89H1753.63V534.638H1746.93V533.89ZM1746.93 531.437H1747.84V534.143H1746.93V531.437ZM1747.99 525.607C1748.48 525.607 1748.93 525.71 1749.32 525.915C1749.7 526.12 1750.01 526.41 1750.24 526.784C1750.47 527.151 1750.58 527.572 1750.58 528.049C1750.58 528.526 1750.47 528.951 1750.24 529.325C1750.01 529.692 1749.7 529.981 1749.32 530.194C1748.93 530.399 1748.48 530.502 1747.99 530.502C1747.49 530.502 1747.05 530.399 1746.65 530.194C1746.27 529.981 1745.96 529.692 1745.73 529.325C1745.5 528.951 1745.39 528.526 1745.39 528.049C1745.39 527.572 1745.5 527.151 1745.73 526.784C1745.96 526.41 1746.27 526.12 1746.65 525.915C1747.05 525.71 1747.49 525.607 1747.99 525.607ZM1747.99 526.399C1747.66 526.399 1747.37 526.469 1747.12 526.608C1746.86 526.747 1746.65 526.942 1746.5 527.191C1746.35 527.44 1746.28 527.726 1746.28 528.049C1746.28 528.379 1746.35 528.669 1746.5 528.918C1746.65 529.16 1746.86 529.351 1747.12 529.49C1747.37 529.629 1747.66 529.699 1747.99 529.699C1748.31 529.699 1748.6 529.629 1748.85 529.49C1749.12 529.351 1749.32 529.16 1749.47 528.918C1749.62 528.669 1749.69 528.379 1749.69 528.049C1749.69 527.726 1749.62 527.44 1749.47 527.191C1749.32 526.942 1749.12 526.747 1748.85 526.608C1748.6 526.469 1748.31 526.399 1747.99 526.399Z" fill="#F5F5F5"/>
<path d="M1252.33 516.784H1253.66V527.344H1252.33V516.784ZM1244.36 529.84H1254.1V530.928H1244.36V529.84ZM1244.36 526.272H1245.69V530.208H1244.36V526.272ZM1245.9 517.792C1246.62 517.792 1247.27 517.941 1247.83 518.24C1248.4 518.539 1248.85 518.96 1249.18 519.504C1249.51 520.037 1249.67 520.651 1249.67 521.344C1249.67 522.037 1249.51 522.656 1249.18 523.2C1248.85 523.733 1248.4 524.155 1247.83 524.464C1247.27 524.763 1246.62 524.912 1245.9 524.912C1245.18 524.912 1244.54 524.763 1243.96 524.464C1243.39 524.155 1242.95 523.733 1242.62 523.2C1242.29 522.656 1242.12 522.037 1242.12 521.344C1242.12 520.651 1242.29 520.037 1242.62 519.504C1242.95 518.96 1243.39 518.539 1243.96 518.24C1244.54 517.941 1245.18 517.792 1245.9 517.792ZM1245.9 518.944C1245.43 518.944 1245.01 519.045 1244.63 519.248C1244.26 519.451 1243.96 519.733 1243.74 520.096C1243.52 520.459 1243.42 520.875 1243.42 521.344C1243.42 521.824 1243.52 522.245 1243.74 522.608C1243.96 522.96 1244.26 523.237 1244.63 523.44C1245.01 523.643 1245.43 523.744 1245.9 523.744C1246.37 523.744 1246.79 523.643 1247.16 523.44C1247.54 523.237 1247.84 522.96 1248.06 522.608C1248.27 522.245 1248.38 521.824 1248.38 521.344C1248.38 520.875 1248.27 520.459 1248.06 520.096C1247.84 519.733 1247.54 519.451 1247.16 519.248C1246.79 519.045 1246.37 518.944 1245.9 518.944ZM1256.52 523.648H1269.59V524.736H1256.52V523.648ZM1263.05 525.984C1264.59 525.984 1265.8 526.213 1266.68 526.672C1267.55 527.131 1267.99 527.776 1267.99 528.608C1267.99 529.44 1267.55 530.08 1266.68 530.528C1265.8 530.987 1264.59 531.216 1263.05 531.216C1261.5 531.216 1260.28 530.987 1259.4 530.528C1258.52 530.08 1258.09 529.44 1258.09 528.608C1258.09 527.776 1258.52 527.131 1259.4 526.672C1260.28 526.213 1261.5 525.984 1263.05 525.984ZM1263.05 527.04C1262.29 527.04 1261.64 527.099 1261.09 527.216C1260.56 527.333 1260.15 527.509 1259.86 527.744C1259.57 527.979 1259.43 528.267 1259.43 528.608C1259.43 528.939 1259.57 529.221 1259.86 529.456C1260.15 529.68 1260.56 529.856 1261.09 529.984C1261.64 530.101 1262.29 530.16 1263.05 530.16C1263.8 530.16 1264.45 530.101 1264.98 529.984C1265.53 529.856 1265.94 529.68 1266.23 529.456C1266.52 529.221 1266.66 528.939 1266.66 528.608C1266.66 528.267 1266.52 527.979 1266.23 527.744C1265.94 527.509 1265.53 527.333 1264.98 527.216C1264.45 527.099 1263.8 527.04 1263.05 527.04ZM1262.2 518.08H1263.37V518.512C1263.37 518.981 1263.27 519.419 1263.06 519.824C1262.87 520.219 1262.6 520.581 1262.25 520.912C1261.89 521.243 1261.48 521.536 1261 521.792C1260.53 522.048 1260.02 522.261 1259.46 522.432C1258.91 522.592 1258.33 522.709 1257.72 522.784L1257.24 521.728C1257.76 521.675 1258.26 521.579 1258.74 521.44C1259.23 521.301 1259.69 521.136 1260.1 520.944C1260.53 520.741 1260.9 520.517 1261.21 520.272C1261.52 520.016 1261.76 519.744 1261.93 519.456C1262.11 519.157 1262.2 518.843 1262.2 518.512V518.08ZM1262.74 518.08H1263.91V518.512C1263.91 518.843 1264 519.157 1264.17 519.456C1264.35 519.744 1264.59 520.016 1264.9 520.272C1265.21 520.528 1265.57 520.757 1265.99 520.96C1266.42 521.152 1266.87 521.317 1267.35 521.456C1267.84 521.584 1268.35 521.675 1268.87 521.728L1268.39 522.784C1267.78 522.709 1267.2 522.592 1266.65 522.432C1266.09 522.261 1265.57 522.048 1265.09 521.792C1264.63 521.536 1264.21 521.243 1263.86 520.912C1263.51 520.581 1263.23 520.213 1263.03 519.808C1262.84 519.403 1262.74 518.971 1262.74 518.512V518.08ZM1257.72 517.504H1268.41V518.592H1257.72V517.504ZM1278.07 520.848H1282.21V521.936H1278.07V520.848ZM1281.81 516.784H1283.14V527.488H1281.81V516.784ZM1273.85 529.84H1283.48V530.928H1273.85V529.84ZM1273.85 526.448H1275.17V530.384H1273.85V526.448ZM1271.94 517.744H1273.27V520.288H1277.17V517.744H1278.49V525.024H1271.94V517.744ZM1273.27 521.328V523.952H1277.17V521.328H1273.27ZM1286.6 518.896H1298.36V519.984H1286.6V518.896ZM1285.96 528.464H1299.08V529.552H1285.96V528.464ZM1291.83 526.16H1293.14V528.88H1291.83V526.16ZM1292.48 520.944C1293.45 520.944 1294.29 521.056 1295 521.28C1295.71 521.493 1296.26 521.803 1296.64 522.208C1297.03 522.613 1297.22 523.109 1297.22 523.696C1297.22 524.272 1297.03 524.768 1296.64 525.184C1296.26 525.6 1295.71 525.92 1295 526.144C1294.29 526.357 1293.45 526.464 1292.48 526.464C1291.51 526.464 1290.67 526.357 1289.96 526.144C1289.25 525.92 1288.71 525.6 1288.32 525.184C1287.94 524.768 1287.75 524.272 1287.75 523.696C1287.75 523.109 1287.94 522.613 1288.32 522.208C1288.71 521.803 1289.25 521.493 1289.96 521.28C1290.67 521.056 1291.51 520.944 1292.48 520.944ZM1292.48 522C1291.78 522 1291.17 522.069 1290.66 522.208C1290.16 522.336 1289.77 522.528 1289.49 522.784C1289.23 523.029 1289.09 523.333 1289.09 523.696C1289.09 524.048 1289.23 524.352 1289.49 524.608C1289.77 524.864 1290.16 525.061 1290.66 525.2C1291.17 525.328 1291.78 525.392 1292.48 525.392C1293.19 525.392 1293.79 525.328 1294.29 525.2C1294.79 525.061 1295.18 524.864 1295.46 524.608C1295.74 524.352 1295.88 524.048 1295.88 523.696C1295.88 523.333 1295.74 523.029 1295.46 522.784C1295.18 522.528 1294.79 522.336 1294.29 522.208C1293.79 522.069 1293.19 522 1292.48 522ZM1291.83 517.008H1293.14V519.552H1291.83V517.008Z" fill="#1E1E1E"/>
<path d="M1358.59 572.182L1358.66 570.307L1357.07 571.312L1356.66 570.597L1358.34 569.727L1356.66 568.858L1357.07 568.142L1358.66 569.148L1358.59 567.273H1359.41L1359.34 569.148L1360.93 568.142L1361.34 568.858L1359.66 569.727L1361.34 570.597L1360.93 571.312L1359.34 570.307L1359.41 572.182H1358.59ZM1373.87 566.088H1374.87V574.008H1373.87V566.088ZM1367.9 575.88H1375.2V576.696H1367.9V575.88ZM1367.9 573.204H1368.89V576.156H1367.9V573.204ZM1369.05 566.844C1369.59 566.844 1370.08 566.956 1370.5 567.18C1370.92 567.404 1371.26 567.72 1371.51 568.128C1371.76 568.528 1371.88 568.988 1371.88 569.508C1371.88 570.028 1371.76 570.492 1371.51 570.9C1371.26 571.3 1370.92 571.616 1370.5 571.848C1370.08 572.072 1369.59 572.184 1369.05 572.184C1368.51 572.184 1368.03 572.072 1367.6 571.848C1367.17 571.616 1366.84 571.3 1366.59 570.9C1366.34 570.492 1366.22 570.028 1366.22 569.508C1366.22 568.988 1366.34 568.528 1366.59 568.128C1366.84 567.72 1367.17 567.404 1367.6 567.18C1368.03 566.956 1368.51 566.844 1369.05 566.844ZM1369.05 567.708C1368.7 567.708 1368.38 567.784 1368.1 567.936C1367.82 568.088 1367.6 568.3 1367.43 568.572C1367.27 568.844 1367.19 569.156 1367.19 569.508C1367.19 569.868 1367.27 570.184 1367.43 570.456C1367.6 570.72 1367.82 570.928 1368.1 571.08C1368.38 571.232 1368.7 571.308 1369.05 571.308C1369.4 571.308 1369.72 571.232 1370 571.08C1370.28 570.928 1370.51 570.72 1370.67 570.456C1370.83 570.184 1370.91 569.868 1370.91 569.508C1370.91 569.156 1370.83 568.844 1370.67 568.572C1370.51 568.3 1370.28 568.088 1370 567.936C1369.72 567.784 1369.4 567.708 1369.05 567.708ZM1377.01 571.236H1386.82V572.052H1377.01V571.236ZM1381.91 572.988C1383.07 572.988 1383.98 573.16 1384.63 573.504C1385.29 573.848 1385.62 574.332 1385.62 574.956C1385.62 575.58 1385.29 576.06 1384.63 576.396C1383.98 576.74 1383.07 576.912 1381.91 576.912C1380.75 576.912 1379.84 576.74 1379.17 576.396C1378.52 576.06 1378.19 575.58 1378.19 574.956C1378.19 574.332 1378.52 573.848 1379.17 573.504C1379.84 573.16 1380.75 572.988 1381.91 572.988ZM1381.91 573.78C1381.34 573.78 1380.85 573.824 1380.45 573.912C1380.05 574 1379.74 574.132 1379.52 574.308C1379.31 574.484 1379.2 574.7 1379.2 574.956C1379.2 575.204 1379.31 575.416 1379.52 575.592C1379.74 575.76 1380.05 575.892 1380.45 575.988C1380.85 576.076 1381.34 576.12 1381.91 576.12C1382.48 576.12 1382.96 576.076 1383.36 575.988C1383.77 575.892 1384.08 575.76 1384.3 575.592C1384.51 575.416 1384.62 575.204 1384.62 574.956C1384.62 574.7 1384.51 574.484 1384.3 574.308C1384.08 574.132 1383.77 574 1383.36 573.912C1382.96 573.824 1382.48 573.78 1381.91 573.78ZM1381.27 567.06H1382.15V567.384C1382.15 567.736 1382.07 568.064 1381.92 568.368C1381.78 568.664 1381.57 568.936 1381.31 569.184C1381.05 569.432 1380.73 569.652 1380.37 569.844C1380.02 570.036 1379.64 570.196 1379.22 570.324C1378.81 570.444 1378.37 570.532 1377.91 570.588L1377.55 569.796C1377.95 569.756 1378.32 569.684 1378.68 569.58C1379.05 569.476 1379.39 569.352 1379.7 569.208C1380.02 569.056 1380.3 568.888 1380.53 568.704C1380.76 568.512 1380.94 568.308 1381.07 568.092C1381.21 567.868 1381.27 567.632 1381.27 567.384V567.06ZM1381.68 567.06H1382.56V567.384C1382.56 567.632 1382.62 567.868 1382.75 568.092C1382.89 568.308 1383.07 568.512 1383.3 568.704C1383.53 568.896 1383.81 569.068 1384.12 569.22C1384.44 569.364 1384.78 569.488 1385.14 569.592C1385.51 569.688 1385.89 569.756 1386.28 569.796L1385.92 570.588C1385.46 570.532 1385.03 570.444 1384.61 570.324C1384.19 570.196 1383.81 570.036 1383.45 569.844C1383.09 569.652 1382.79 569.432 1382.52 569.184C1382.26 568.936 1382.05 568.66 1381.9 568.356C1381.75 568.052 1381.68 567.728 1381.68 567.384V567.06ZM1377.91 566.628H1385.93V567.444H1377.91V566.628ZM1395.94 566.076H1396.93V576.948H1395.94V566.076ZM1391.21 566.916C1391.75 566.916 1392.22 567.072 1392.63 567.384C1393.04 567.688 1393.37 568.124 1393.6 568.692C1393.84 569.26 1393.96 569.928 1393.96 570.696C1393.96 571.464 1393.84 572.132 1393.6 572.7C1393.37 573.268 1393.04 573.708 1392.63 574.02C1392.22 574.332 1391.75 574.488 1391.21 574.488C1390.67 574.488 1390.2 574.332 1389.78 574.02C1389.37 573.708 1389.04 573.268 1388.8 572.7C1388.57 572.132 1388.45 571.464 1388.45 570.696C1388.45 569.928 1388.57 569.26 1388.8 568.692C1389.04 568.124 1389.37 567.688 1389.78 567.384C1390.2 567.072 1390.67 566.916 1391.21 566.916ZM1391.21 567.804C1390.85 567.804 1390.53 567.924 1390.26 568.164C1390 568.396 1389.79 568.732 1389.64 569.172C1389.49 569.604 1389.41 570.112 1389.41 570.696C1389.41 571.28 1389.49 571.792 1389.64 572.232C1389.79 572.664 1390 573 1390.26 573.24C1390.53 573.48 1390.85 573.6 1391.21 573.6C1391.56 573.6 1391.87 573.48 1392.13 573.24C1392.41 573 1392.62 572.664 1392.77 572.232C1392.92 571.792 1393 571.28 1393 570.696C1393 570.112 1392.92 569.604 1392.77 569.172C1392.62 568.732 1392.41 568.396 1392.13 568.164C1391.87 567.924 1391.56 567.804 1391.21 567.804ZM1405.28 570.588H1406.27V572.232H1405.28V570.588ZM1405.74 566.58C1406.26 566.58 1406.72 566.672 1407.12 566.856C1407.53 567.032 1407.85 567.28 1408.07 567.6C1408.3 567.92 1408.42 568.292 1408.42 568.716C1408.42 569.14 1408.3 569.516 1408.07 569.844C1407.85 570.164 1407.53 570.416 1407.12 570.6C1406.72 570.776 1406.26 570.864 1405.74 570.864C1405.22 570.864 1404.76 570.776 1404.35 570.6C1403.95 570.416 1403.64 570.164 1403.4 569.844C1403.18 569.516 1403.07 569.14 1403.07 568.716C1403.07 568.292 1403.18 567.92 1403.4 567.6C1403.64 567.28 1403.95 567.032 1404.35 566.856C1404.76 566.672 1405.22 566.58 1405.74 566.58ZM1405.74 567.348C1405.41 567.348 1405.11 567.404 1404.84 567.516C1404.58 567.628 1404.37 567.788 1404.22 567.996C1404.08 568.204 1404 568.444 1404 568.716C1404 568.988 1404.08 569.228 1404.22 569.436C1404.37 569.644 1404.58 569.808 1404.84 569.928C1405.11 570.04 1405.41 570.096 1405.74 570.096C1406.09 570.096 1406.39 570.04 1406.64 569.928C1406.91 569.808 1407.11 569.644 1407.26 569.436C1407.41 569.228 1407.48 568.988 1407.48 568.716C1407.48 568.444 1407.41 568.204 1407.26 567.996C1407.11 567.788 1406.91 567.628 1406.64 567.516C1406.39 567.404 1406.09 567.348 1405.74 567.348ZM1409.88 566.088H1410.88V574.392H1409.88V566.088ZM1410.46 569.748H1412.46V570.588H1410.46V569.748ZM1404.02 575.868H1411.26V576.684H1404.02V575.868ZM1404.02 573.684H1405.01V576.228H1404.02V573.684ZM1402.58 572.784L1402.46 571.956C1403.09 571.956 1403.78 571.952 1404.54 571.944C1405.31 571.928 1406.1 571.896 1406.9 571.848C1407.7 571.792 1408.46 571.708 1409.2 571.596L1409.27 572.328C1408.52 572.464 1407.74 572.564 1406.94 572.628C1406.15 572.692 1405.38 572.736 1404.63 572.76C1403.88 572.776 1403.2 572.784 1402.58 572.784ZM1416.25 572.436H1417.23V575.1H1416.25V572.436ZM1419.72 572.424H1420.69V575.088H1419.72V572.424ZM1413.51 574.764H1423.35V575.592H1413.51V574.764ZM1414.71 566.88H1422.12V570.168H1415.71V572.34H1414.73V569.364H1421.14V567.696H1414.71V566.88ZM1414.73 571.908H1422.37V572.724H1414.73V571.908ZM1425.41 570.756H1430.95V571.572H1425.41V570.756ZM1427.63 571.404H1428.63V573.9H1427.63V571.404ZM1425.41 567.108H1430.91V567.912H1426.39V571.044H1425.41V567.108ZM1432.39 566.076H1433.39V576.948H1432.39V566.076ZM1424.74 574.596L1424.61 573.756C1425.32 573.756 1426.07 573.752 1426.87 573.744C1427.67 573.728 1428.49 573.7 1429.31 573.66C1430.13 573.612 1430.93 573.544 1431.69 573.456L1431.77 574.188C1430.98 574.308 1430.17 574.4 1429.35 574.464C1428.53 574.52 1427.73 574.556 1426.95 574.572C1426.17 574.588 1425.43 574.596 1424.74 574.596ZM1438.36 572.688H1439.14V573.324C1439.14 573.796 1439.04 574.264 1438.85 574.728C1438.66 575.184 1438.38 575.592 1438.01 575.952C1437.65 576.312 1437.2 576.592 1436.68 576.792L1436.18 576.048C1436.64 575.88 1437.03 575.652 1437.35 575.364C1437.68 575.068 1437.92 574.744 1438.09 574.392C1438.27 574.032 1438.36 573.676 1438.36 573.324V572.688ZM1438.57 572.688H1439.32V573.324C1439.32 573.692 1439.39 574.06 1439.53 574.428C1439.68 574.788 1439.89 575.12 1440.18 575.424C1440.47 575.72 1440.83 575.96 1441.27 576.144L1440.84 576.888C1440.32 576.68 1439.89 576.388 1439.56 576.012C1439.22 575.636 1438.97 575.216 1438.81 574.752C1438.65 574.28 1438.57 573.804 1438.57 573.324V572.688ZM1442.36 572.688H1443.11V573.324C1443.11 573.748 1443.03 574.196 1442.87 574.668C1442.71 575.132 1442.46 575.564 1442.12 575.964C1441.79 576.364 1441.36 576.672 1440.84 576.888L1440.42 576.144C1440.85 575.936 1441.21 575.672 1441.5 575.352C1441.79 575.032 1442 574.692 1442.15 574.332C1442.29 573.972 1442.36 573.636 1442.36 573.324V572.688ZM1442.57 572.688H1443.34V573.324C1443.34 573.7 1443.42 574.068 1443.59 574.428C1443.76 574.788 1444.01 575.108 1444.33 575.388C1444.66 575.668 1445.06 575.888 1445.52 576.048L1445.02 576.792C1444.49 576.6 1444.04 576.328 1443.67 575.976C1443.31 575.624 1443.04 575.22 1442.84 574.764C1442.66 574.308 1442.57 573.828 1442.57 573.324V572.688ZM1440.92 568.8H1443.79V569.616H1440.92V568.8ZM1438.55 566.688C1439.08 566.688 1439.55 566.796 1439.96 567.012C1440.39 567.228 1440.72 567.528 1440.96 567.912C1441.2 568.296 1441.32 568.736 1441.32 569.232C1441.32 569.736 1441.2 570.18 1440.96 570.564C1440.72 570.94 1440.39 571.236 1439.96 571.452C1439.55 571.668 1439.08 571.776 1438.55 571.776C1438.01 571.776 1437.53 571.668 1437.11 571.452C1436.69 571.236 1436.36 570.94 1436.12 570.564C1435.88 570.18 1435.76 569.736 1435.76 569.232C1435.76 568.736 1435.88 568.296 1436.12 567.912C1436.36 567.528 1436.69 567.228 1437.11 567.012C1437.53 566.796 1438.01 566.688 1438.55 566.688ZM1438.55 567.528C1438.2 567.528 1437.88 567.6 1437.6 567.744C1437.33 567.888 1437.11 568.092 1436.95 568.356C1436.79 568.612 1436.71 568.904 1436.71 569.232C1436.71 569.568 1436.79 569.864 1436.95 570.12C1437.11 570.376 1437.33 570.58 1437.6 570.732C1437.88 570.876 1438.2 570.948 1438.55 570.948C1438.89 570.948 1439.2 570.876 1439.47 570.732C1439.75 570.58 1439.97 570.376 1440.13 570.12C1440.29 569.864 1440.37 569.568 1440.37 569.232C1440.37 568.904 1440.29 568.612 1440.13 568.356C1439.97 568.092 1439.75 567.888 1439.47 567.744C1439.2 567.6 1438.89 567.528 1438.55 567.528ZM1443.52 566.076H1444.51V572.268H1443.52V566.076ZM1447.86 572.592H1448.84V573.84H1454.16V572.592H1455.14V576.792H1447.86V572.592ZM1448.84 574.62V575.988H1454.16V574.62H1448.84ZM1446.62 571.02H1456.43V571.836H1446.62V571.02ZM1451.02 566.196H1451.88V566.688C1451.88 567.064 1451.8 567.42 1451.64 567.756C1451.48 568.084 1451.26 568.388 1450.98 568.668C1450.71 568.94 1450.39 569.184 1450.02 569.4C1449.66 569.616 1449.27 569.796 1448.84 569.94C1448.43 570.084 1448 570.192 1447.55 570.264L1447.18 569.472C1447.57 569.416 1447.95 569.328 1448.32 569.208C1448.69 569.088 1449.04 568.944 1449.37 568.776C1449.7 568.6 1449.99 568.404 1450.24 568.188C1450.48 567.964 1450.68 567.728 1450.81 567.48C1450.95 567.224 1451.02 566.96 1451.02 566.688V566.196ZM1451.18 566.196H1452.04V566.688C1452.04 566.952 1452.1 567.212 1452.24 567.468C1452.38 567.716 1452.58 567.952 1452.83 568.176C1453.08 568.392 1453.36 568.588 1453.68 568.764C1454.01 568.94 1454.36 569.092 1454.72 569.22C1455.1 569.34 1455.48 569.424 1455.86 569.472L1455.5 570.264C1455.06 570.192 1454.62 570.084 1454.2 569.94C1453.78 569.796 1453.39 569.616 1453.02 569.4C1452.66 569.176 1452.34 568.924 1452.06 568.644C1451.79 568.364 1451.57 568.06 1451.41 567.732C1451.26 567.404 1451.18 567.056 1451.18 566.688V566.196ZM1465.56 566.076H1466.54V576.936H1465.56V566.076ZM1458.35 567.144H1459.33V573.864H1458.35V567.144ZM1458.35 573.276H1459.23C1460.07 573.276 1460.91 573.24 1461.77 573.168C1462.63 573.088 1463.52 572.956 1464.43 572.772L1464.56 573.612C1463.62 573.812 1462.71 573.952 1461.84 574.032C1460.97 574.104 1460.1 574.14 1459.23 574.14H1458.35V573.276ZM1476.05 566.076H1477.04V576.948H1476.05V566.076ZM1476.81 570.36H1478.82V571.188H1476.81V570.36ZM1469.17 573.396H1470.02C1470.69 573.396 1471.29 573.388 1471.85 573.372C1472.41 573.348 1472.94 573.308 1473.45 573.252C1473.97 573.196 1474.5 573.12 1475.04 573.024L1475.16 573.876C1474.6 573.972 1474.05 574.048 1473.53 574.104C1473.01 574.16 1472.46 574.196 1471.89 574.212C1471.33 574.228 1470.7 574.236 1470.02 574.236H1469.17V573.396ZM1469.17 567.132H1474.2V567.948H1470.15V573.78H1469.17V567.132ZM1480.79 576.068C1480.58 576.068 1480.4 575.993 1480.25 575.842C1480.1 575.692 1480.03 575.511 1480.03 575.301C1480.03 575.091 1480.1 574.911 1480.25 574.76C1480.4 574.609 1480.58 574.534 1480.79 574.534C1481 574.534 1481.18 574.609 1481.34 574.76C1481.49 574.911 1481.56 575.091 1481.56 575.301C1481.56 575.44 1481.53 575.568 1481.45 575.685C1481.39 575.801 1481.29 575.895 1481.18 575.966C1481.06 576.034 1480.94 576.068 1480.79 576.068Z" fill="#415AFF"/>
<mask id="path-34-inside-3_85_1558" fill="white">
<path d="M1715 467C1715 462.582 1718.58 459 1723 459H1767C1771.42 459 1775 462.582 1775 467V478C1775 482.418 1771.42 486 1767 486H1723C1718.58 486 1715 482.418 1715 478V467Z"/>
</mask>
<path d="M1715 467C1715 462.582 1718.58 459 1723 459H1767C1771.42 459 1775 462.582 1775 467V478C1775 482.418 1771.42 486 1767 486H1723C1718.58 486 1715 482.418 1715 478V467Z" fill="#00AE1A" fill-opacity="0.46"/>
<path d="M1723 459V460H1767V459V458H1723V459ZM1775 467H1774V478H1775H1776V467H1775ZM1767 486V485H1723V486V487H1767V486ZM1715 478H1716V467H1715H1714V478H1715ZM1723 486V485C1719.13 485 1716 481.866 1716 478H1715H1714C1714 482.971 1718.03 487 1723 487V486ZM1775 478H1774C1774 481.866 1770.87 485 1767 485V486V487C1771.97 487 1776 482.971 1776 478H1775ZM1767 459V460C1770.87 460 1774 463.134 1774 467H1775H1776C1776 462.029 1771.97 458 1767 458V459ZM1723 459V458C1718.03 458 1714 462.029 1714 467H1715H1716C1716 463.134 1719.13 460 1723 460V459Z" fill="#00AE1A" fill-opacity="0.46" mask="url(#path-34-inside-3_85_1558)"/>
<path d="M1732.29 467.914H1733.2V475.174H1732.29V467.914ZM1726.81 476.89H1733.51V477.638H1726.81V476.89ZM1726.81 474.437H1727.72V477.143H1726.81V474.437ZM1727.87 468.607C1728.36 468.607 1728.81 468.71 1729.2 468.915C1729.59 469.12 1729.89 469.41 1730.12 469.784C1730.35 470.151 1730.46 470.572 1730.46 471.049C1730.46 471.526 1730.35 471.951 1730.12 472.325C1729.89 472.692 1729.59 472.981 1729.2 473.194C1728.81 473.399 1728.36 473.502 1727.87 473.502C1727.37 473.502 1726.93 473.399 1726.54 473.194C1726.15 472.981 1725.84 472.692 1725.61 472.325C1725.38 471.951 1725.27 471.526 1725.27 471.049C1725.27 470.572 1725.38 470.151 1725.61 469.784C1725.84 469.41 1726.15 469.12 1726.54 468.915C1726.93 468.71 1727.37 468.607 1727.87 468.607ZM1727.87 469.399C1727.54 469.399 1727.25 469.469 1727 469.608C1726.74 469.747 1726.54 469.942 1726.38 470.191C1726.23 470.44 1726.16 470.726 1726.16 471.049C1726.16 471.379 1726.23 471.669 1726.38 471.918C1726.54 472.16 1726.74 472.351 1727 472.49C1727.25 472.629 1727.54 472.699 1727.87 472.699C1728.19 472.699 1728.48 472.629 1728.74 472.49C1729 472.351 1729.2 472.16 1729.35 471.918C1729.5 471.669 1729.57 471.379 1729.57 471.049C1729.57 470.726 1729.5 470.44 1729.35 470.191C1729.2 469.942 1729 469.747 1728.74 469.608C1728.48 469.469 1728.19 469.399 1727.87 469.399ZM1735.17 472.633H1744.16V473.381H1735.17V472.633ZM1739.66 474.239C1740.72 474.239 1741.55 474.397 1742.15 474.712C1742.76 475.027 1743.06 475.471 1743.06 476.043C1743.06 476.615 1742.76 477.055 1742.15 477.363C1741.55 477.678 1740.72 477.836 1739.66 477.836C1738.59 477.836 1737.76 477.678 1737.15 477.363C1736.55 477.055 1736.25 476.615 1736.25 476.043C1736.25 475.471 1736.55 475.027 1737.15 474.712C1737.76 474.397 1738.59 474.239 1739.66 474.239ZM1739.66 474.965C1739.14 474.965 1738.69 475.005 1738.32 475.086C1737.95 475.167 1737.67 475.288 1737.47 475.449C1737.27 475.61 1737.17 475.808 1737.17 476.043C1737.17 476.27 1737.27 476.465 1737.47 476.626C1737.67 476.78 1737.95 476.901 1738.32 476.989C1738.69 477.07 1739.14 477.11 1739.66 477.11C1740.18 477.11 1740.62 477.07 1740.99 476.989C1741.36 476.901 1741.65 476.78 1741.85 476.626C1742.04 476.465 1742.14 476.27 1742.14 476.043C1742.14 475.808 1742.04 475.61 1741.85 475.449C1741.65 475.288 1741.36 475.167 1740.99 475.086C1740.62 475.005 1740.18 474.965 1739.66 474.965ZM1739.07 468.805H1739.88V469.102C1739.88 469.425 1739.81 469.725 1739.67 470.004C1739.54 470.275 1739.35 470.525 1739.11 470.752C1738.87 470.979 1738.58 471.181 1738.25 471.357C1737.93 471.533 1737.57 471.68 1737.19 471.797C1736.81 471.907 1736.41 471.988 1735.99 472.039L1735.66 471.313C1736.02 471.276 1736.37 471.21 1736.7 471.115C1737.04 471.02 1737.35 470.906 1737.63 470.774C1737.93 470.635 1738.18 470.481 1738.39 470.312C1738.6 470.136 1738.77 469.949 1738.89 469.751C1739.01 469.546 1739.07 469.329 1739.07 469.102V468.805ZM1739.45 468.805H1740.25V469.102C1740.25 469.329 1740.31 469.546 1740.43 469.751C1740.55 469.949 1740.72 470.136 1740.93 470.312C1741.15 470.488 1741.4 470.646 1741.68 470.785C1741.97 470.917 1742.29 471.031 1742.62 471.126C1742.95 471.214 1743.3 471.276 1743.66 471.313L1743.33 472.039C1742.91 471.988 1742.51 471.907 1742.13 471.797C1741.75 471.68 1741.4 471.533 1741.07 471.357C1740.74 471.181 1740.46 470.979 1740.22 470.752C1739.98 470.525 1739.79 470.272 1739.65 469.993C1739.51 469.714 1739.45 469.417 1739.45 469.102V468.805ZM1735.99 468.409H1743.34V469.157H1735.99V468.409ZM1752.03 467.903H1752.93V477.858H1752.03V467.903ZM1752.72 471.995H1754.56V472.765H1752.72V471.995ZM1745.23 469.498H1751.1V470.246H1745.23V469.498ZM1748.21 471.06C1748.68 471.06 1749.1 471.159 1749.46 471.357C1749.82 471.555 1750.11 471.826 1750.32 472.171C1750.53 472.508 1750.63 472.901 1750.63 473.348C1750.63 473.795 1750.53 474.191 1750.32 474.536C1750.11 474.881 1749.82 475.152 1749.46 475.35C1749.1 475.541 1748.68 475.636 1748.21 475.636C1747.74 475.636 1747.33 475.541 1746.96 475.35C1746.6 475.152 1746.31 474.881 1746.1 474.536C1745.89 474.191 1745.78 473.795 1745.78 473.348C1745.78 472.901 1745.89 472.508 1746.1 472.171C1746.31 471.826 1746.6 471.555 1746.96 471.357C1747.33 471.159 1747.74 471.06 1748.21 471.06ZM1748.21 471.819C1747.91 471.819 1747.65 471.885 1747.41 472.017C1747.18 472.149 1746.99 472.329 1746.85 472.556C1746.72 472.783 1746.65 473.047 1746.65 473.348C1746.65 473.649 1746.72 473.916 1746.85 474.151C1746.99 474.378 1747.18 474.558 1747.41 474.69C1747.65 474.815 1747.91 474.877 1748.21 474.877C1748.51 474.877 1748.77 474.815 1749.01 474.69C1749.24 474.558 1749.42 474.378 1749.56 474.151C1749.7 473.916 1749.77 473.649 1749.77 473.348C1749.77 473.047 1749.7 472.783 1749.56 472.556C1749.42 472.329 1749.24 472.149 1749.01 472.017C1748.77 471.885 1748.51 471.819 1748.21 471.819ZM1747.74 468.024H1748.65V469.828H1747.74V468.024ZM1762.66 467.903H1763.57V477.858H1762.66V467.903ZM1759.74 468.981H1760.64C1760.64 469.7 1760.56 470.393 1760.38 471.06C1760.21 471.727 1759.94 472.362 1759.58 472.963C1759.21 473.557 1758.73 474.111 1758.15 474.624C1757.56 475.137 1756.85 475.596 1756.01 475.999L1755.53 475.262C1756.49 474.8 1757.28 474.261 1757.9 473.645C1758.53 473.029 1758.99 472.343 1759.29 471.588C1759.59 470.825 1759.74 470.004 1759.74 469.124V468.981ZM1755.99 468.981H1760.13V469.718H1755.99V468.981Z" fill="#F5F5F5"/>
</g>
<defs>
<filter id="filter0_di_85_1558" x="0" y="0" width="1920" height="68.5937" filterUnits="userSpaceOnUse" color-interpolation-filters="sRGB">
<feFlood flood-opacity="0" result="BackgroundImageFix"/>
<feColorMatrix in="SourceAlpha" type="matrix" values="0 0 0 0 0 0 0 0 0 0 0 0 0 0 0 0 0 0 127 0" result="hardAlpha"/>
<feOffset dy="0.593692"/>
<feColorMatrix type="matrix" values="0 0 0 0 0 0 0 0 0 0 0 0 0 0 0 0 0 0 0.15 0"/>
<feBlend mode="normal" in2="BackgroundImageFix" result="effect1_dropShadow_85_1558"/>
<feBlend mode="normal" in="SourceGraphic" in2="effect1_dropShadow_85_1558" result="shape"/>
<feColorMatrix in="SourceAlpha" type="matrix" values="0 0 0 0 0 0 0 0 0 0 0 0 0 0 0 0 0 0 127 0" result="hardAlpha"/>
<feOffset dy="-0.593692"/>
<feComposite in2="hardAlpha" operator="arithmetic" k2="-1" k3="1"/>
<feColorMatrix type="matrix" values="0 0 0 0 0 0 0 0 0 0 0 0 0 0 0 0 0 0 0.05 0"/>
<feBlend mode="normal" in2="shape" result="effect2_innerShadow_85_1558"/>
</filter>
<clipPath id="clip0_85_1558">
<rect width="1920" height="1080" fill="white"/>
</clipPath>
<clipPath id="clip1_85_1558">
<rect width="15.36" height="15.36" fill="white" transform="translate(144 26.32)"/>
</clipPath>
</defs>
</svg>
