<svg width="1920" height="1080" viewBox="0 0 1920 1080" fill="none" xmlns="http://www.w3.org/2000/svg">
<g clip-path="url(#clip0_320_5112)">
<rect width="1920" height="1080" fill="white"/>
<g filter="url(#filter0_di_320_5112)">
<rect width="1920" height="68" fill="#FEF7FF"/>
<path d="M36 32.9996H23.83L29.42 27.4096L28 25.9996L20 33.9996L28 41.9996L29.41 40.5896L23.83 34.9996H36V32.9996Z" fill="#79747E"/>
<path d="M64 25.9996L62.59 27.4096L68.17 32.9996H56V34.9996H68.17L62.59 40.5896L64 41.9996L72 33.9996L64 25.9996Z" fill="#79747E"/>
<path d="M105.65 28.3496C104.2 26.8996 102.21 25.9996 99.9998 25.9996C95.5798 25.9996 92.0098 29.5796 92.0098 33.9996C92.0098 38.4196 95.5798 41.9996 99.9998 41.9996C103.73 41.9996 106.84 39.4496 107.73 35.9996H105.65C104.83 38.3296 102.61 39.9996 99.9998 39.9996C96.6898 39.9996 93.9998 37.3096 93.9998 33.9996C93.9998 30.6896 96.6898 27.9996 99.9998 27.9996C101.66 27.9996 103.14 28.6896 104.22 29.7796L101 32.9996H108V25.9996L105.65 28.3496Z" fill="#79747E"/>
<rect x="128" y="16" width="1692" height="36" rx="18" fill="#F3EDF7"/>
<g clip-path="url(#clip1_320_5112)">
<path opacity="0.65" d="M155.521 31.4406H154.881V30.1606C154.881 28.3942 153.447 26.9606 151.681 26.9606C149.914 26.9606 148.481 28.3942 148.481 30.1606V31.4406H147.841C147.137 31.4406 146.561 32.0166 146.561 32.7206V39.1206C146.561 39.8246 147.137 40.4006 147.841 40.4006H155.521C156.225 40.4006 156.801 39.8246 156.801 39.1206V32.7206C156.801 32.0166 156.225 31.4406 155.521 31.4406ZM151.681 37.2006C150.977 37.2006 150.401 36.6246 150.401 35.9206C150.401 35.2166 150.977 34.6406 151.681 34.6406C152.385 34.6406 152.961 35.2166 152.961 35.9206C152.961 36.6246 152.385 37.2006 151.681 37.2006ZM153.665 31.4406H149.697V30.1606C149.697 29.0662 150.586 28.1766 151.681 28.1766C152.775 28.1766 153.665 29.0662 153.665 30.1606V31.4406Z" fill="#49454F"/>
</g>
<path d="M170.603 37.5L172.774 30.5469H173.728L173.54 31.9297L171.329 39H170.399L170.603 37.5ZM169.142 30.5469L170.993 37.5781L171.126 39H170.149L167.696 30.5469H169.142ZM175.806 37.5234L177.571 30.5469H179.009L176.556 39H175.587L175.806 37.5234ZM173.938 30.5469L176.063 37.3828L176.306 39H175.384L173.11 31.9141L172.923 30.5469H173.938ZM183.134 37.5L185.306 30.5469H186.259L186.071 31.9297L183.86 39H182.931L183.134 37.5ZM181.673 30.5469L183.524 37.5781L183.657 39H182.681L180.228 30.5469H181.673ZM188.337 37.5234L190.103 30.5469H191.54L189.087 39H188.118L188.337 37.5234ZM186.47 30.5469L188.595 37.3828L188.837 39H187.915L185.642 31.9141L185.454 30.5469H186.47ZM195.665 37.5L197.837 30.5469H198.79L198.603 31.9297L196.392 39H195.462L195.665 37.5ZM194.204 30.5469L196.056 37.5781L196.188 39H195.212L192.759 30.5469H194.204ZM200.868 37.5234L202.634 30.5469H204.071L201.618 39H200.649L200.868 37.5234ZM199.001 30.5469L201.126 37.3828L201.368 39H200.446L198.173 31.9141L197.985 30.5469H199.001ZM205.11 38.2344C205.11 37.9896 205.186 37.7839 205.337 37.6172C205.493 37.4453 205.717 37.3594 206.009 37.3594C206.3 37.3594 206.522 37.4453 206.673 37.6172C206.829 37.7839 206.907 37.9896 206.907 38.2344C206.907 38.474 206.829 38.6771 206.673 38.8438C206.522 39.0104 206.3 39.0938 206.009 39.0938C205.717 39.0938 205.493 39.0104 205.337 38.8438C205.186 38.6771 205.11 38.474 205.11 38.2344ZM214.978 37.0469V30.5469H216.431V39H215.048L214.978 37.0469ZM215.251 35.2656L215.853 35.25C215.853 35.8125 215.793 36.3333 215.673 36.8125C215.558 37.2865 215.371 37.6979 215.11 38.0469C214.85 38.3958 214.509 38.6693 214.087 38.8672C213.665 39.0599 213.152 39.1562 212.548 39.1562C212.136 39.1562 211.759 39.0964 211.415 38.9766C211.076 38.8568 210.785 38.6719 210.54 38.4219C210.295 38.1719 210.105 37.8464 209.97 37.4453C209.84 37.0443 209.774 36.5625 209.774 36V30.5469H211.22V36.0156C211.22 36.3958 211.261 36.7109 211.345 36.9609C211.433 37.2057 211.55 37.401 211.696 37.5469C211.847 37.6875 212.014 37.7865 212.196 37.8438C212.384 37.901 212.576 37.9297 212.774 37.9297C213.389 37.9297 213.876 37.8125 214.235 37.5781C214.595 37.3385 214.853 37.0182 215.009 36.6172C215.17 36.2109 215.251 35.7604 215.251 35.2656ZM220.579 31.875V39H219.134V30.5469H220.54L220.579 31.875ZM223.22 30.5L223.212 31.8438C223.092 31.8177 222.978 31.8021 222.868 31.7969C222.764 31.7865 222.644 31.7812 222.509 31.7812C222.175 31.7812 221.881 31.8333 221.626 31.9375C221.371 32.0417 221.155 32.1875 220.978 32.375C220.8 32.5625 220.66 32.7865 220.556 33.0469C220.457 33.3021 220.392 33.5833 220.36 33.8906L219.954 34.125C219.954 33.6146 220.004 33.1354 220.103 32.6875C220.207 32.2396 220.366 31.8438 220.579 31.5C220.793 31.151 221.063 30.8802 221.392 30.6875C221.725 30.4896 222.121 30.3906 222.579 30.3906C222.683 30.3906 222.803 30.4036 222.938 30.4297C223.074 30.4505 223.168 30.474 223.22 30.5ZM226.626 27V39H225.173V27H226.626ZM229.47 38.2344C229.47 37.9896 229.545 37.7839 229.696 37.6172C229.853 37.4453 230.076 37.3594 230.368 37.3594C230.66 37.3594 230.881 37.4453 231.032 37.6172C231.188 37.7839 231.267 37.9896 231.267 38.2344C231.267 38.474 231.188 38.6771 231.032 38.8438C230.881 39.0104 230.66 39.0938 230.368 39.0938C230.076 39.0938 229.853 39.0104 229.696 38.8438C229.545 38.6771 229.47 38.474 229.47 38.2344ZM237.548 37.9688C237.892 37.9688 238.209 37.8984 238.501 37.7578C238.793 37.6172 239.032 37.4245 239.22 37.1797C239.407 36.9297 239.514 36.6458 239.54 36.3281H240.915C240.889 36.8281 240.72 37.2943 240.407 37.7266C240.1 38.1536 239.696 38.5 239.196 38.7656C238.696 39.026 238.147 39.1562 237.548 39.1562C236.912 39.1562 236.358 39.0443 235.884 38.8203C235.415 38.5964 235.024 38.2891 234.712 37.8984C234.405 37.5078 234.173 37.0599 234.017 36.5547C233.866 36.0443 233.79 35.5052 233.79 34.9375V34.6094C233.79 34.0417 233.866 33.5052 234.017 33C234.173 32.4896 234.405 32.0391 234.712 31.6484C235.024 31.2578 235.415 30.9505 235.884 30.7266C236.358 30.5026 236.912 30.3906 237.548 30.3906C238.209 30.3906 238.787 30.526 239.282 30.7969C239.777 31.0625 240.165 31.4271 240.446 31.8906C240.733 32.349 240.889 32.8698 240.915 33.4531H239.54C239.514 33.1042 239.415 32.7891 239.243 32.5078C239.076 32.2266 238.847 32.0026 238.556 31.8359C238.269 31.6641 237.933 31.5781 237.548 31.5781C237.105 31.5781 236.733 31.6667 236.431 31.8438C236.134 32.0156 235.897 32.25 235.72 32.5469C235.548 32.8385 235.423 33.1641 235.345 33.5234C235.272 33.8776 235.235 34.2396 235.235 34.6094V34.9375C235.235 35.3073 235.272 35.6719 235.345 36.0312C235.418 36.3906 235.54 36.7161 235.712 37.0078C235.889 37.2995 236.126 37.5339 236.423 37.7109C236.725 37.8828 237.1 37.9688 237.548 37.9688ZM242.657 34.8672V34.6875C242.657 34.0781 242.746 33.513 242.923 32.9922C243.1 32.4661 243.355 32.0104 243.688 31.625C244.022 31.2344 244.425 30.9323 244.899 30.7188C245.373 30.5 245.905 30.3906 246.493 30.3906C247.087 30.3906 247.621 30.5 248.095 30.7188C248.574 30.9323 248.98 31.2344 249.313 31.625C249.652 32.0104 249.91 32.4661 250.087 32.9922C250.264 33.513 250.353 34.0781 250.353 34.6875V34.8672C250.353 35.4766 250.264 36.0417 250.087 36.5625C249.91 37.0833 249.652 37.5391 249.313 37.9297C248.98 38.3151 248.576 38.6172 248.103 38.8359C247.634 39.0495 247.103 39.1562 246.509 39.1562C245.915 39.1562 245.381 39.0495 244.907 38.8359C244.433 38.6172 244.027 38.3151 243.688 37.9297C243.355 37.5391 243.1 37.0833 242.923 36.5625C242.746 36.0417 242.657 35.4766 242.657 34.8672ZM244.103 34.6875V34.8672C244.103 35.2891 244.152 35.6875 244.251 36.0625C244.35 36.4323 244.498 36.7604 244.696 37.0469C244.899 37.3333 245.152 37.5599 245.454 37.7266C245.756 37.888 246.108 37.9688 246.509 37.9688C246.905 37.9688 247.251 37.888 247.548 37.7266C247.85 37.5599 248.1 37.3333 248.298 37.0469C248.496 36.7604 248.644 36.4323 248.743 36.0625C248.847 35.6875 248.899 35.2891 248.899 34.8672V34.6875C248.899 34.2708 248.847 33.8776 248.743 33.5078C248.644 33.1328 248.493 32.8021 248.29 32.5156C248.092 32.224 247.842 31.9948 247.54 31.8281C247.243 31.6615 246.894 31.5781 246.493 31.5781C246.097 31.5781 245.748 31.6615 245.446 31.8281C245.149 31.9948 244.899 32.224 244.696 32.5156C244.498 32.8021 244.35 33.1328 244.251 33.5078C244.152 33.8776 244.103 34.2708 244.103 34.6875ZM254.103 32.2266V39H252.649V30.5469H254.024L254.103 32.2266ZM253.806 34.4531L253.134 34.4297C253.139 33.8516 253.215 33.3177 253.36 32.8281C253.506 32.3333 253.722 31.9036 254.009 31.5391C254.295 31.1745 254.652 30.8932 255.079 30.6953C255.506 30.4922 256.001 30.3906 256.563 30.3906C256.959 30.3906 257.324 30.4479 257.657 30.5625C257.991 30.6719 258.28 30.8464 258.524 31.0859C258.769 31.3255 258.959 31.6328 259.095 32.0078C259.23 32.3828 259.298 32.8359 259.298 33.3672V39H257.853V33.4375C257.853 32.9948 257.777 32.6406 257.626 32.375C257.48 32.1094 257.272 31.9167 257.001 31.7969C256.73 31.6719 256.412 31.6094 256.048 31.6094C255.621 31.6094 255.264 31.6849 254.978 31.8359C254.691 31.987 254.462 32.1953 254.29 32.4609C254.118 32.7266 253.993 33.0312 253.915 33.375C253.842 33.7135 253.806 34.0729 253.806 34.4531ZM259.282 33.6562L258.313 33.9531C258.319 33.4896 258.394 33.0443 258.54 32.6172C258.691 32.1901 258.907 31.8099 259.188 31.4766C259.475 31.1432 259.826 30.8802 260.243 30.6875C260.66 30.4896 261.136 30.3906 261.673 30.3906C262.126 30.3906 262.527 30.4505 262.876 30.5703C263.23 30.6901 263.527 30.875 263.767 31.125C264.011 31.3698 264.196 31.6849 264.321 32.0703C264.446 32.4557 264.509 32.9141 264.509 33.4453V39H263.056V33.4297C263.056 32.9557 262.98 32.5885 262.829 32.3281C262.683 32.0625 262.475 31.8776 262.204 31.7734C261.938 31.6641 261.621 31.6094 261.251 31.6094C260.933 31.6094 260.652 31.6641 260.407 31.7734C260.162 31.8828 259.957 32.0339 259.79 32.2266C259.623 32.4141 259.496 32.6302 259.407 32.875C259.324 33.1198 259.282 33.3802 259.282 33.6562Z" fill="#1D1B20"/>
<path d="M1802.33 31.6984L1796.34 31.1817L1794 25.665L1791.66 31.19L1785.67 31.6984L1790.22 35.64L1788.85 41.4984L1794 38.39L1799.15 41.4984L1797.79 35.64L1802.33 31.6984ZM1794 36.8317L1790.87 38.7234L1791.7 35.1567L1788.93 32.7567L1792.58 32.44L1794 29.0817L1795.43 32.4484L1799.08 32.765L1796.31 35.165L1797.14 38.7317L1794 36.8317Z" fill="#79747E"/>
<rect x="1836" y="20" width="28" height="28" rx="14" fill="#79747E"/>
<path d="M1844.99 28.4434H1846.46L1850.18 37.7168L1853.9 28.4434H1855.37L1850.74 39.8184H1849.6L1844.99 28.4434ZM1844.52 28.4434H1845.81L1846.02 35.3809V39.8184H1844.52V28.4434ZM1854.55 28.4434H1855.84V39.8184H1854.34V35.3809L1854.55 28.4434Z" fill="white"/>
<path d="M1892 29.9996C1893.1 29.9996 1894 29.0996 1894 27.9996C1894 26.8996 1893.1 25.9996 1892 25.9996C1890.9 25.9996 1890 26.8996 1890 27.9996C1890 29.0996 1890.9 29.9996 1892 29.9996ZM1892 31.9996C1890.9 31.9996 1890 32.8996 1890 33.9996C1890 35.0996 1890.9 35.9996 1892 35.9996C1893.1 35.9996 1894 35.0996 1894 33.9996C1894 32.8996 1893.1 31.9996 1892 31.9996ZM1892 37.9996C1890.9 37.9996 1890 38.8996 1890 39.9996C1890 41.0996 1890.9 41.9996 1892 41.9996C1893.1 41.9996 1894 41.0996 1894 39.9996C1894 38.8996 1893.1 37.9996 1892 37.9996Z" fill="#79747E"/>
</g>
<path d="M1614.93 578.456H1616.26V580.84H1614.93V578.456ZM1621.26 569.768H1622.59V584.248H1621.26V569.768ZM1611.07 581.496L1610.88 580.376C1611.8 580.365 1612.79 580.355 1613.86 580.344C1614.92 580.333 1616.01 580.296 1617.12 580.232C1618.23 580.168 1619.3 580.067 1620.34 579.928L1620.43 580.92C1619.37 581.091 1618.28 581.219 1617.18 581.304C1616.09 581.379 1615.01 581.432 1613.97 581.464C1612.92 581.485 1611.96 581.496 1611.07 581.496ZM1611.18 571.544H1619.97V572.616H1611.18V571.544ZM1615.57 573.432C1616.26 573.432 1616.87 573.544 1617.39 573.768C1617.91 573.992 1618.32 574.307 1618.61 574.712C1618.91 575.107 1619.06 575.576 1619.06 576.12C1619.06 576.653 1618.91 577.123 1618.61 577.528C1618.32 577.933 1617.91 578.248 1617.39 578.472C1616.87 578.685 1616.26 578.792 1615.57 578.792C1614.89 578.792 1614.28 578.685 1613.76 578.472C1613.24 578.248 1612.83 577.933 1612.54 577.528C1612.26 577.123 1612.11 576.653 1612.11 576.12C1612.11 575.576 1612.26 575.107 1612.54 574.712C1612.83 574.307 1613.24 573.992 1613.76 573.768C1614.28 573.544 1614.89 573.432 1615.57 573.432ZM1615.57 574.472C1614.93 574.472 1614.4 574.621 1613.98 574.92C1613.57 575.219 1613.36 575.619 1613.36 576.12C1613.36 576.611 1613.57 577.005 1613.98 577.304C1614.4 577.603 1614.93 577.752 1615.57 577.752C1616.23 577.752 1616.76 577.603 1617.17 577.304C1617.58 577.005 1617.79 576.611 1617.79 576.12C1617.79 575.619 1617.58 575.219 1617.17 574.92C1616.76 574.621 1616.23 574.472 1615.57 574.472ZM1614.93 569.784H1616.26V572.12H1614.93V569.784ZM1629.61 577.064H1630.94V580.28H1629.61V577.064ZM1636.03 569.784H1637.36V580.776H1636.03V569.784ZM1627.49 582.84H1637.71V583.928H1627.49V582.84ZM1627.49 579.704H1628.81V583.128H1627.49V579.704ZM1625.61 577.56L1625.44 576.456C1626.33 576.456 1627.31 576.451 1628.35 576.44C1629.41 576.419 1630.48 576.381 1631.58 576.328C1632.68 576.264 1633.74 576.168 1634.77 576.04L1634.86 577C1633.83 577.171 1632.76 577.299 1631.66 577.384C1630.57 577.459 1629.51 577.507 1628.48 577.528C1627.44 577.549 1626.49 577.56 1625.61 577.56ZM1633.09 578.328H1636.38V579.288H1633.09V578.328ZM1630.14 570.36C1630.86 570.36 1631.48 570.467 1632.01 570.68C1632.55 570.883 1632.96 571.176 1633.25 571.56C1633.55 571.933 1633.69 572.376 1633.69 572.888C1633.69 573.389 1633.55 573.832 1633.25 574.216C1632.96 574.6 1632.55 574.893 1632.01 575.096C1631.48 575.299 1630.86 575.4 1630.14 575.4C1629.44 575.4 1628.81 575.299 1628.27 575.096C1627.74 574.893 1627.32 574.6 1627.02 574.216C1626.73 573.832 1626.59 573.389 1626.59 572.888C1626.59 572.376 1626.73 571.933 1627.02 571.56C1627.32 571.176 1627.74 570.883 1628.27 570.68C1628.81 570.467 1629.44 570.36 1630.14 570.36ZM1630.14 571.352C1629.46 571.352 1628.91 571.491 1628.48 571.768C1628.05 572.045 1627.84 572.419 1627.84 572.888C1627.84 573.347 1628.05 573.715 1628.48 573.992C1628.91 574.269 1629.46 574.408 1630.14 574.408C1630.81 574.408 1631.36 574.269 1631.79 573.992C1632.22 573.715 1632.43 573.347 1632.43 572.888C1632.43 572.568 1632.33 572.296 1632.14 572.072C1631.95 571.848 1631.68 571.672 1631.34 571.544C1631 571.416 1630.6 571.352 1630.14 571.352ZM1650.03 569.768H1651.36V584.232H1650.03V569.768ZM1651.01 575.64H1653.66V576.744H1651.01V575.64ZM1646.33 571.32H1647.63C1647.63 572.696 1647.41 574.013 1646.96 575.272C1646.51 576.52 1645.81 577.677 1644.85 578.744C1643.89 579.8 1642.62 580.717 1641.05 581.496L1640.32 580.472C1641.66 579.8 1642.78 579.016 1643.66 578.12C1644.56 577.213 1645.22 576.211 1645.66 575.112C1646.11 574.003 1646.33 572.808 1646.33 571.528V571.32ZM1640.99 571.32H1647.01V572.424H1640.99V571.32ZM1665.48 569.768H1666.81V577.544H1665.48V569.768ZM1657.5 578.264H1658.8V580.008H1665.5V578.264H1666.81V584.056H1657.5V578.264ZM1658.8 581.064V582.968H1665.5V581.064H1658.8ZM1659.05 570.456C1659.79 570.456 1660.44 570.6 1661 570.888C1661.57 571.165 1662.01 571.555 1662.33 572.056C1662.66 572.557 1662.83 573.139 1662.83 573.8C1662.83 574.451 1662.66 575.032 1662.33 575.544C1662.01 576.045 1661.57 576.435 1661 576.712C1660.44 576.989 1659.79 577.128 1659.05 577.128C1658.33 577.128 1657.68 576.989 1657.1 576.712C1656.53 576.435 1656.09 576.045 1655.76 575.544C1655.44 575.032 1655.28 574.451 1655.28 573.8C1655.28 573.139 1655.44 572.557 1655.76 572.056C1656.09 571.555 1656.53 571.165 1657.1 570.888C1657.68 570.6 1658.33 570.456 1659.05 570.456ZM1659.05 571.576C1658.57 571.576 1658.15 571.672 1657.77 571.864C1657.4 572.045 1657.11 572.307 1656.89 572.648C1656.68 572.979 1656.57 573.363 1656.57 573.8C1656.57 574.227 1656.68 574.611 1656.89 574.952C1657.11 575.283 1657.4 575.544 1657.77 575.736C1658.15 575.928 1658.57 576.024 1659.05 576.024C1659.53 576.024 1659.96 575.928 1660.33 575.736C1660.71 575.544 1661 575.283 1661.21 574.952C1661.43 574.611 1661.53 574.227 1661.53 573.8C1661.53 573.363 1661.43 572.979 1661.21 572.648C1661 572.307 1660.71 572.045 1660.33 571.864C1659.96 571.672 1659.53 571.576 1659.05 571.576Z" fill="#1E1E1E"/>
<path d="M1704.31 569.768H1705.64V584.264H1704.31V569.768ZM1694.62 571H1695.94V574.808H1700.12V571H1701.43V580.776H1694.62V571ZM1695.94 575.864V579.672H1700.12V575.864H1695.94ZM1709.27 570.568H1716.02V576.488H1709.27V570.568ZM1714.73 571.64H1710.57V575.432H1714.73V571.64ZM1719.05 569.768H1720.37V577.208H1719.05V569.768ZM1711.01 577.944H1720.37V581.432H1712.34V583.464H1711.05V580.456H1719.06V579H1711.01V577.944ZM1711.05 583.016H1720.85V584.088H1711.05V583.016ZM1730.07 573.848H1734.21V574.936H1730.07V573.848ZM1733.81 569.784H1735.14V580.488H1733.81V569.784ZM1725.85 582.84H1735.48V583.928H1725.85V582.84ZM1725.85 579.448H1727.17V583.384H1725.85V579.448ZM1723.94 570.744H1725.27V573.288H1729.17V570.744H1730.49V578.024H1723.94V570.744ZM1725.27 574.328V576.952H1729.17V574.328H1725.27ZM1738.6 571.896H1750.36V572.984H1738.6V571.896ZM1737.96 581.464H1751.08V582.552H1737.96V581.464ZM1743.83 579.16H1745.14V581.88H1743.83V579.16ZM1744.48 573.944C1745.45 573.944 1746.29 574.056 1747 574.28C1747.71 574.493 1748.26 574.803 1748.64 575.208C1749.03 575.613 1749.22 576.109 1749.22 576.696C1749.22 577.272 1749.03 577.768 1748.64 578.184C1748.26 578.6 1747.71 578.92 1747 579.144C1746.29 579.357 1745.45 579.464 1744.48 579.464C1743.51 579.464 1742.67 579.357 1741.96 579.144C1741.25 578.92 1740.71 578.6 1740.32 578.184C1739.94 577.768 1739.75 577.272 1739.75 576.696C1739.75 576.109 1739.94 575.613 1740.32 575.208C1740.71 574.803 1741.25 574.493 1741.96 574.28C1742.67 574.056 1743.51 573.944 1744.48 573.944ZM1744.48 575C1743.78 575 1743.17 575.069 1742.66 575.208C1742.16 575.336 1741.77 575.528 1741.49 575.784C1741.23 576.029 1741.09 576.333 1741.09 576.696C1741.09 577.048 1741.23 577.352 1741.49 577.608C1741.77 577.864 1742.16 578.061 1742.66 578.2C1743.17 578.328 1743.78 578.392 1744.48 578.392C1745.19 578.392 1745.79 578.328 1746.29 578.2C1746.79 578.061 1747.18 577.864 1747.46 577.608C1747.74 577.352 1747.88 577.048 1747.88 576.696C1747.88 576.333 1747.74 576.029 1747.46 575.784C1747.18 575.528 1746.79 575.336 1746.29 575.208C1745.79 575.069 1745.19 575 1744.48 575ZM1743.83 570.008H1745.14V572.552H1743.83V570.008ZM1760.79 572.152H1761.86V572.776C1761.86 573.597 1761.69 574.355 1761.35 575.048C1761.02 575.741 1760.55 576.344 1759.94 576.856C1759.34 577.368 1758.63 577.757 1757.82 578.024L1757.18 576.968C1757.89 576.744 1758.52 576.424 1759.06 576.008C1759.61 575.592 1760.03 575.107 1760.33 574.552C1760.64 573.997 1760.79 573.405 1760.79 572.776V572.152ZM1761.02 572.152H1762.1V572.776C1762.1 573.352 1762.25 573.901 1762.54 574.424C1762.83 574.936 1763.25 575.395 1763.78 575.8C1764.32 576.195 1764.94 576.499 1765.64 576.712L1765.03 577.736C1764.22 577.491 1763.51 577.128 1762.9 576.648C1762.31 576.157 1761.84 575.581 1761.51 574.92C1761.18 574.259 1761.02 573.544 1761.02 572.776V572.152ZM1757.58 571.448H1765.3V572.52H1757.58V571.448ZM1760.79 569.704H1762.12V571.896H1760.79V569.704ZM1767.08 569.768H1768.41V578.168H1767.08V569.768ZM1768.04 573.336H1770.54V574.44H1768.04V573.336ZM1763.22 579.368H1764.34V579.752C1764.34 580.317 1764.2 580.845 1763.93 581.336C1763.66 581.827 1763.28 582.264 1762.79 582.648C1762.31 583.032 1761.76 583.352 1761.13 583.608C1760.5 583.875 1759.83 584.067 1759.11 584.184L1758.62 583.16C1759.23 583.075 1759.82 582.925 1760.38 582.712C1760.93 582.499 1761.42 582.243 1761.85 581.944C1762.27 581.635 1762.61 581.293 1762.86 580.92C1763.1 580.547 1763.22 580.157 1763.22 579.752V579.368ZM1763.46 579.368H1764.6V579.752C1764.6 580.157 1764.72 580.541 1764.97 580.904C1765.22 581.267 1765.56 581.603 1765.99 581.912C1766.42 582.221 1766.9 582.488 1767.45 582.712C1768 582.925 1768.59 583.08 1769.21 583.176L1768.71 584.2C1768 584.072 1767.32 583.875 1766.7 583.608C1766.07 583.352 1765.51 583.032 1765.02 582.648C1764.54 582.253 1764.16 581.811 1763.88 581.32C1763.6 580.829 1763.46 580.307 1763.46 579.752V579.368ZM1759.18 578.952H1768.65V580.04H1759.18V578.952ZM1782.44 569.768H1783.77V584.248H1782.44V569.768ZM1778.2 571.336H1779.51C1779.51 572.381 1779.38 573.389 1779.13 574.36C1778.88 575.331 1778.49 576.253 1777.96 577.128C1777.42 577.992 1776.73 578.797 1775.88 579.544C1775.02 580.291 1773.99 580.957 1772.77 581.544L1772.07 580.472C1773.47 579.8 1774.62 579.016 1775.53 578.12C1776.43 577.224 1777.1 576.227 1777.54 575.128C1777.98 574.019 1778.2 572.824 1778.2 571.544V571.336ZM1772.74 571.336H1778.76V572.408H1772.74V571.336Z" fill="#1E1E1E"/>
<path d="M1404.06 448.872H1414.84V450.504H1404.06V448.872ZM1409.46 451.944C1410.37 451.944 1411.17 452.152 1411.86 452.568C1412.57 452.984 1413.12 453.568 1413.52 454.32C1413.92 455.056 1414.12 455.912 1414.12 456.888C1414.12 457.864 1413.92 458.728 1413.52 459.48C1413.12 460.216 1412.57 460.8 1411.86 461.232C1411.17 461.648 1410.37 461.856 1409.46 461.856C1408.57 461.856 1407.77 461.648 1407.06 461.232C1406.36 460.8 1405.81 460.216 1405.41 459.48C1405.01 458.728 1404.81 457.864 1404.81 456.888C1404.81 455.912 1405.01 455.056 1405.41 454.32C1405.81 453.584 1406.36 453.008 1407.06 452.592C1407.77 452.16 1408.57 451.944 1409.46 451.944ZM1409.46 453.624C1408.92 453.624 1408.42 453.768 1407.97 454.056C1407.54 454.328 1407.2 454.712 1406.94 455.208C1406.7 455.688 1406.58 456.248 1406.58 456.888C1406.58 457.528 1406.7 458.096 1406.94 458.592C1407.2 459.088 1407.54 459.472 1407.97 459.744C1408.42 460.016 1408.92 460.152 1409.46 460.152C1410.02 460.152 1410.52 460.016 1410.95 459.744C1411.38 459.472 1411.72 459.088 1411.96 458.592C1412.21 458.096 1412.34 457.528 1412.34 456.888C1412.34 456.248 1412.21 455.688 1411.96 455.208C1411.72 454.712 1411.38 454.328 1410.95 454.056C1410.52 453.768 1410.02 453.624 1409.46 453.624ZM1420.57 445.152H1422.47V466.872H1420.57V445.152ZM1417.09 454.296H1421.2V455.928H1417.09V454.296ZM1415.92 445.656H1417.79V465.816H1415.92V445.656ZM1408.48 445.8H1410.45V449.856H1408.48V445.8ZM1441.04 445.152H1443.06V458.064H1441.04V445.152ZM1442.48 450.792H1446.23V452.448H1442.48V450.792ZM1436.12 458.52C1437.58 458.52 1438.84 458.688 1439.89 459.024C1440.96 459.344 1441.79 459.816 1442.36 460.44C1442.96 461.048 1443.25 461.792 1443.25 462.672C1443.25 463.536 1442.96 464.28 1442.36 464.904C1441.79 465.528 1440.96 466 1439.89 466.32C1438.84 466.656 1437.58 466.824 1436.12 466.824C1434.65 466.824 1433.38 466.656 1432.31 466.32C1431.24 466 1430.41 465.528 1429.84 464.904C1429.26 464.28 1428.97 463.536 1428.97 462.672C1428.97 461.792 1429.26 461.048 1429.84 460.44C1430.41 459.816 1431.24 459.344 1432.31 459.024C1433.38 458.688 1434.65 458.52 1436.12 458.52ZM1436.12 460.128C1435.05 460.128 1434.12 460.232 1433.34 460.44C1432.57 460.632 1431.97 460.92 1431.54 461.304C1431.12 461.672 1430.92 462.128 1430.92 462.672C1430.92 463.2 1431.12 463.656 1431.54 464.04C1431.97 464.424 1432.57 464.72 1433.34 464.928C1434.12 465.12 1435.05 465.216 1436.12 465.216C1437.18 465.216 1438.1 465.12 1438.88 464.928C1439.67 464.72 1440.27 464.424 1440.68 464.04C1441.1 463.656 1441.31 463.2 1441.31 462.672C1441.31 462.128 1441.1 461.672 1440.68 461.304C1440.27 460.92 1439.67 460.632 1438.88 460.44C1438.1 460.232 1437.18 460.128 1436.12 460.128ZM1427.15 454.704H1428.83C1430.35 454.704 1431.67 454.688 1432.79 454.656C1433.91 454.624 1434.94 454.552 1435.88 454.44C1436.83 454.328 1437.79 454.176 1438.76 453.984L1438.98 455.616C1437.99 455.808 1437 455.96 1436.03 456.072C1435.07 456.168 1434.01 456.24 1432.86 456.288C1431.71 456.32 1430.36 456.336 1428.83 456.336H1427.15V454.704ZM1427.15 446.808H1436.72V448.44H1429.12V455.784H1427.15V446.808ZM1460.32 447.024H1461.95V450.912C1461.95 452.112 1461.8 453.288 1461.5 454.44C1461.21 455.592 1460.79 456.672 1460.25 457.68C1459.7 458.688 1459.06 459.584 1458.33 460.368C1457.59 461.152 1456.79 461.776 1455.93 462.24L1454.7 460.632C1455.5 460.232 1456.24 459.696 1456.91 459.024C1457.6 458.336 1458.2 457.552 1458.71 456.672C1459.22 455.792 1459.62 454.864 1459.89 453.888C1460.18 452.896 1460.32 451.904 1460.32 450.912V447.024ZM1460.68 447.024H1462.29V450.912C1462.29 451.872 1462.42 452.824 1462.7 453.768C1462.98 454.712 1463.38 455.6 1463.9 456.432C1464.41 457.264 1464.99 458.008 1465.65 458.664C1466.32 459.32 1467.04 459.84 1467.81 460.224L1466.58 461.808C1465.74 461.376 1464.95 460.784 1464.23 460.032C1463.53 459.28 1462.9 458.424 1462.36 457.464C1461.83 456.488 1461.42 455.448 1461.11 454.344C1460.82 453.224 1460.68 452.08 1460.68 450.912V447.024ZM1469.7 445.152H1471.7V466.872H1469.7V445.152ZM1471.24 453.936H1475.25V455.64H1471.24V453.936ZM1481.92 452.52H1483.91V456.6H1481.92V452.52ZM1489.89 452.52H1491.85V456.6H1489.89V452.52ZM1477.09 455.88H1496.7V457.488H1477.09V455.88ZM1486.89 459.144C1489.21 459.144 1491.02 459.472 1492.33 460.128C1493.65 460.784 1494.3 461.728 1494.3 462.96C1494.3 464.208 1493.65 465.16 1492.33 465.816C1491.02 466.488 1489.21 466.824 1486.89 466.824C1484.57 466.824 1482.74 466.488 1481.41 465.816C1480.1 465.16 1479.45 464.208 1479.45 462.96C1479.45 461.728 1480.1 460.784 1481.41 460.128C1482.74 459.472 1484.57 459.144 1486.89 459.144ZM1486.89 460.68C1485.75 460.68 1484.77 460.768 1483.96 460.944C1483.16 461.12 1482.54 461.384 1482.11 461.736C1481.68 462.072 1481.46 462.48 1481.46 462.96C1481.46 463.472 1481.68 463.904 1482.11 464.256C1482.54 464.592 1483.16 464.848 1483.96 465.024C1484.77 465.2 1485.75 465.288 1486.89 465.288C1488.02 465.288 1488.99 465.2 1489.79 465.024C1490.61 464.848 1491.23 464.592 1491.66 464.256C1492.09 463.904 1492.31 463.472 1492.31 462.96C1492.31 462.48 1492.09 462.072 1491.66 461.736C1491.23 461.384 1490.61 461.12 1489.79 460.944C1488.99 460.768 1488.02 460.68 1486.89 460.68ZM1486.89 445.56C1488.45 445.56 1489.81 445.72 1490.94 446.04C1492.09 446.36 1492.97 446.824 1493.58 447.432C1494.21 448.024 1494.52 448.744 1494.52 449.592C1494.52 450.424 1494.21 451.144 1493.58 451.752C1492.97 452.36 1492.09 452.824 1490.94 453.144C1489.81 453.448 1488.45 453.6 1486.89 453.6C1485.32 453.6 1483.96 453.448 1482.81 453.144C1481.67 452.824 1480.79 452.36 1480.17 451.752C1479.56 451.144 1479.25 450.424 1479.25 449.592C1479.25 448.744 1479.56 448.024 1480.17 447.432C1480.79 446.824 1481.67 446.36 1482.81 446.04C1483.96 445.72 1485.32 445.56 1486.89 445.56ZM1486.89 447.12C1485.75 447.12 1484.76 447.216 1483.91 447.408C1483.08 447.6 1482.43 447.88 1481.97 448.248C1481.52 448.616 1481.29 449.064 1481.29 449.592C1481.29 450.104 1481.52 450.552 1481.97 450.936C1482.43 451.304 1483.08 451.584 1483.91 451.776C1484.76 451.968 1485.75 452.064 1486.89 452.064C1488.05 452.064 1489.05 451.968 1489.89 451.776C1490.72 451.584 1491.36 451.304 1491.81 450.936C1492.25 450.552 1492.48 450.104 1492.48 449.592C1492.48 449.064 1492.25 448.616 1491.81 448.248C1491.36 447.88 1490.72 447.6 1489.89 447.408C1489.05 447.216 1488.05 447.12 1486.89 447.12ZM1504.52 448.272H1506.13V451.776C1506.13 452.912 1505.97 454.04 1505.65 455.16C1505.33 456.264 1504.88 457.312 1504.31 458.304C1503.75 459.28 1503.1 460.152 1502.36 460.92C1501.63 461.672 1500.84 462.264 1499.99 462.696L1498.81 461.112C1499.6 460.728 1500.32 460.208 1501 459.552C1501.68 458.88 1502.29 458.12 1502.82 457.272C1503.35 456.408 1503.76 455.512 1504.07 454.584C1504.37 453.64 1504.52 452.704 1504.52 451.776V448.272ZM1504.91 448.272H1506.49V451.776C1506.49 452.64 1506.63 453.512 1506.9 454.392C1507.19 455.272 1507.59 456.112 1508.1 456.912C1508.61 457.712 1509.2 458.432 1509.88 459.072C1510.56 459.696 1511.29 460.2 1512.06 460.584L1510.93 462.168C1510.08 461.736 1509.29 461.16 1508.56 460.44C1507.82 459.704 1507.18 458.872 1506.64 457.944C1506.09 457.016 1505.67 456.024 1505.36 454.968C1505.06 453.912 1504.91 452.848 1504.91 451.776V448.272ZM1499.58 447.384H1511.29V449.04H1499.58V447.384ZM1513.86 445.152H1515.85V466.872H1513.86V445.152ZM1515.4 453.912H1519.4V455.592H1515.4V453.912ZM1528.28 446.736C1529.42 446.736 1530.42 446.952 1531.28 447.384C1532.16 447.8 1532.85 448.392 1533.35 449.16C1533.84 449.928 1534.09 450.824 1534.09 451.848C1534.09 452.856 1533.84 453.752 1533.35 454.536C1532.85 455.304 1532.16 455.904 1531.28 456.336C1530.42 456.752 1529.42 456.96 1528.28 456.96C1527.16 456.96 1526.16 456.752 1525.28 456.336C1524.4 455.904 1523.71 455.304 1523.19 454.536C1522.7 453.752 1522.45 452.856 1522.45 451.848C1522.45 450.824 1522.7 449.928 1523.19 449.16C1523.71 448.392 1524.4 447.8 1525.28 447.384C1526.16 446.952 1527.16 446.736 1528.28 446.736ZM1528.28 448.464C1527.55 448.464 1526.88 448.608 1526.29 448.896C1525.71 449.168 1525.26 449.56 1524.92 450.072C1524.59 450.584 1524.42 451.176 1524.42 451.848C1524.42 452.52 1524.59 453.112 1524.92 453.624C1525.26 454.136 1525.71 454.536 1526.29 454.824C1526.88 455.096 1527.55 455.232 1528.28 455.232C1529.03 455.232 1529.7 455.096 1530.27 454.824C1530.85 454.536 1531.31 454.136 1531.64 453.624C1531.98 453.112 1532.15 452.52 1532.15 451.848C1532.15 451.176 1531.98 450.584 1531.64 450.072C1531.31 449.56 1530.85 449.168 1530.27 448.896C1529.7 448.608 1529.03 448.464 1528.28 448.464ZM1536.95 445.152H1538.94V466.896H1536.95V445.152ZM1521.63 462.144L1521.37 460.464C1522.7 460.464 1524.15 460.456 1525.74 460.44C1527.32 460.408 1528.95 460.344 1530.63 460.248C1532.33 460.136 1533.96 459.96 1535.53 459.72L1535.7 461.184C1534.07 461.488 1532.41 461.712 1530.73 461.856C1529.07 461.984 1527.46 462.064 1525.91 462.096C1524.35 462.128 1522.93 462.144 1521.63 462.144ZM1555.84 446.832C1556.91 446.832 1557.85 447.144 1558.67 447.768C1559.49 448.376 1560.13 449.248 1560.59 450.384C1561.05 451.52 1561.29 452.856 1561.29 454.392C1561.29 455.928 1561.05 457.264 1560.59 458.4C1560.13 459.536 1559.49 460.416 1558.67 461.04C1557.85 461.664 1556.91 461.976 1555.84 461.976C1554.78 461.976 1553.84 461.664 1553.01 461.04C1552.19 460.416 1551.55 459.536 1551.09 458.4C1550.62 457.264 1550.39 455.928 1550.39 454.392C1550.39 452.856 1550.62 451.52 1551.09 450.384C1551.55 449.248 1552.19 448.376 1553.01 447.768C1553.84 447.144 1554.78 446.832 1555.84 446.832ZM1555.84 448.608C1555.15 448.608 1554.53 448.848 1553.99 449.328C1553.46 449.792 1553.05 450.464 1552.74 451.344C1552.44 452.208 1552.29 453.224 1552.29 454.392C1552.29 455.56 1552.44 456.584 1552.74 457.464C1553.05 458.328 1553.46 459 1553.99 459.48C1554.53 459.96 1555.16 460.2 1555.86 460.2C1556.55 460.2 1557.16 459.96 1557.69 459.48C1558.23 459 1558.65 458.328 1558.93 457.464C1559.24 456.584 1559.39 455.56 1559.39 454.392C1559.39 453.224 1559.24 452.208 1558.93 451.344C1558.65 450.464 1558.23 449.792 1557.69 449.328C1557.16 448.848 1556.54 448.608 1555.84 448.608ZM1564.77 445.152H1566.76V466.872H1564.77V445.152ZM1566.3 453.816H1570.31V455.496H1566.3V453.816ZM1587.92 445.152H1589.92V466.896H1587.92V445.152ZM1578.47 446.832C1579.54 446.832 1580.48 447.144 1581.3 447.768C1582.13 448.376 1582.78 449.248 1583.24 450.384C1583.72 451.52 1583.96 452.856 1583.96 454.392C1583.96 455.928 1583.72 457.264 1583.24 458.4C1582.78 459.536 1582.13 460.416 1581.3 461.04C1580.48 461.664 1579.54 461.976 1578.47 461.976C1577.4 461.976 1576.44 461.664 1575.61 461.04C1574.78 460.416 1574.12 459.536 1573.64 458.4C1573.18 457.264 1572.95 455.928 1572.95 454.392C1572.95 452.856 1573.18 451.52 1573.64 450.384C1574.12 449.248 1574.78 448.376 1575.61 447.768C1576.44 447.144 1577.4 446.832 1578.47 446.832ZM1578.47 448.608C1577.75 448.608 1577.12 448.848 1576.57 449.328C1576.04 449.792 1575.63 450.464 1575.32 451.344C1575.02 452.208 1574.87 453.224 1574.87 454.392C1574.87 455.56 1575.02 456.584 1575.32 457.464C1575.63 458.328 1576.04 459 1576.57 459.48C1577.12 459.96 1577.75 460.2 1578.47 460.2C1579.17 460.2 1579.79 459.96 1580.32 459.48C1580.86 459 1581.28 458.328 1581.59 457.464C1581.89 456.584 1582.04 455.56 1582.04 454.392C1582.04 453.224 1581.89 452.208 1581.59 451.344C1581.28 450.464 1580.86 449.792 1580.32 449.328C1579.79 448.848 1579.17 448.608 1578.47 448.608ZM1610 445.152H1611.99V466.896H1610V445.152ZM1595.63 459.816H1597.38C1598.82 459.816 1600.11 459.8 1601.27 459.768C1602.42 459.736 1603.51 459.664 1604.53 459.552C1605.57 459.44 1606.63 459.288 1607.7 459.096L1607.89 460.776C1606.8 460.984 1605.73 461.144 1604.67 461.256C1603.62 461.352 1602.51 461.424 1601.34 461.472C1600.17 461.504 1598.85 461.52 1597.38 461.52H1595.63V459.816ZM1595.63 447.216H1605.87V448.872H1597.62V460.44H1595.63V447.216ZM1618.95 451.68H1633.71V453.288H1618.95V451.68ZM1616.29 456.192H1635.97V457.824H1616.29V456.192ZM1618.95 445.944H1620.92V452.496H1618.95V445.944ZM1618.81 464.712H1633.83V466.344H1618.81V464.712ZM1618.81 460.008H1620.8V465.144H1618.81V460.008ZM1469.26 485.909V487.614H1462.48V485.909H1469.26ZM1464.45 482.773H1466.46V495.25C1466.46 495.818 1466.55 496.244 1466.71 496.528C1466.88 496.807 1467.1 496.994 1467.36 497.091C1467.63 497.182 1467.91 497.227 1468.2 497.227C1468.42 497.227 1468.61 497.216 1468.75 497.193C1468.89 497.165 1469 497.142 1469.09 497.125L1469.5 498.932C1469.36 498.983 1469.17 499.034 1468.93 499.085C1468.68 499.142 1468.37 499.17 1468 499.17C1467.43 499.17 1466.87 499.048 1466.33 498.804C1465.79 498.56 1465.34 498.188 1464.98 497.688C1464.63 497.188 1464.45 496.557 1464.45 495.795V482.773ZM1477.63 499.273C1476.37 499.273 1475.28 498.994 1474.37 498.438C1473.46 497.875 1472.76 497.091 1472.26 496.085C1471.78 495.074 1471.53 493.898 1471.53 492.557C1471.53 491.216 1471.78 490.034 1472.26 489.011C1472.76 487.983 1473.45 487.182 1474.33 486.608C1475.21 486.028 1476.25 485.739 1477.43 485.739C1478.11 485.739 1478.78 485.852 1479.45 486.08C1480.11 486.307 1480.72 486.676 1481.26 487.188C1481.81 487.693 1482.24 488.364 1482.57 489.199C1482.89 490.034 1483.05 491.062 1483.05 492.284V493.136H1472.96V491.398H1481.01C1481.01 490.659 1480.86 490 1480.57 489.42C1480.28 488.841 1479.86 488.384 1479.32 488.048C1478.79 487.713 1478.16 487.545 1477.43 487.545C1476.63 487.545 1475.93 487.744 1475.35 488.142C1474.77 488.534 1474.32 489.045 1474.01 489.676C1473.7 490.307 1473.54 490.983 1473.54 491.705V492.864C1473.54 493.852 1473.71 494.69 1474.05 495.378C1474.4 496.06 1474.88 496.58 1475.49 496.938C1476.11 497.29 1476.82 497.466 1477.63 497.466C1478.16 497.466 1478.64 497.392 1479.07 497.244C1479.5 497.091 1479.87 496.864 1480.18 496.562C1480.49 496.256 1480.74 495.875 1480.91 495.42L1482.85 495.966C1482.65 496.625 1482.3 497.205 1481.82 497.705C1481.34 498.199 1480.74 498.585 1480.03 498.864C1479.32 499.136 1478.52 499.273 1477.63 499.273ZM1495.39 488.841L1493.58 489.352C1493.47 489.051 1493.3 488.759 1493.08 488.474C1492.86 488.185 1492.57 487.946 1492.19 487.759C1491.82 487.571 1491.34 487.477 1490.75 487.477C1489.95 487.477 1489.28 487.662 1488.75 488.031C1488.22 488.395 1487.95 488.858 1487.95 489.42C1487.95 489.92 1488.14 490.315 1488.5 490.605C1488.86 490.895 1489.43 491.136 1490.2 491.33L1492.15 491.807C1493.32 492.091 1494.19 492.526 1494.76 493.111C1495.34 493.69 1495.63 494.437 1495.63 495.352C1495.63 496.102 1495.41 496.773 1494.98 497.364C1494.55 497.955 1493.95 498.42 1493.19 498.761C1492.42 499.102 1491.53 499.273 1490.51 499.273C1489.18 499.273 1488.07 498.983 1487.2 498.403C1486.32 497.824 1485.77 496.977 1485.53 495.864L1487.44 495.386C1487.63 496.091 1487.97 496.619 1488.47 496.972C1488.99 497.324 1489.65 497.5 1490.48 497.5C1491.41 497.5 1492.16 497.301 1492.71 496.903C1493.27 496.5 1493.55 496.017 1493.55 495.455C1493.55 495 1493.39 494.619 1493.07 494.312C1492.75 494 1492.26 493.767 1491.6 493.614L1489.42 493.102C1488.22 492.818 1487.34 492.378 1486.78 491.781C1486.22 491.179 1485.94 490.426 1485.94 489.523C1485.94 488.784 1486.15 488.131 1486.57 487.562C1486.99 486.994 1487.56 486.548 1488.28 486.224C1489.01 485.901 1489.83 485.739 1490.75 485.739C1492.05 485.739 1493.06 486.023 1493.8 486.591C1494.55 487.159 1495.07 487.909 1495.39 488.841ZM1504.35 485.909V487.614H1497.56V485.909H1504.35ZM1499.54 482.773H1501.55V495.25C1501.55 495.818 1501.63 496.244 1501.8 496.528C1501.97 496.807 1502.18 496.994 1502.45 497.091C1502.71 497.182 1502.99 497.227 1503.29 497.227C1503.51 497.227 1503.69 497.216 1503.83 497.193C1503.98 497.165 1504.09 497.142 1504.18 497.125L1504.58 498.932C1504.45 498.983 1504.26 499.034 1504.01 499.085C1503.77 499.142 1503.46 499.17 1503.08 499.17C1502.52 499.17 1501.96 499.048 1501.41 498.804C1500.87 498.56 1500.43 498.188 1500.07 497.688C1499.72 497.188 1499.54 496.557 1499.54 495.795V482.773ZM1522.52 479.152H1524.51V490.816H1522.52V479.152ZM1510.55 491.896H1512.49V494.512H1522.55V491.896H1524.51V500.584H1510.55V491.896ZM1512.49 496.096V498.952H1522.55V496.096H1512.49ZM1512.87 480.184C1513.98 480.184 1514.95 480.4 1515.8 480.832C1516.65 481.248 1517.31 481.832 1517.79 482.584C1518.29 483.336 1518.54 484.208 1518.54 485.2C1518.54 486.176 1518.29 487.048 1517.79 487.816C1517.31 488.568 1516.65 489.152 1515.8 489.568C1514.95 489.984 1513.98 490.192 1512.87 490.192C1511.79 490.192 1510.81 489.984 1509.95 489.568C1509.1 489.152 1508.43 488.568 1507.93 487.816C1507.45 487.048 1507.21 486.176 1507.21 485.2C1507.21 484.208 1507.45 483.336 1507.93 482.584C1508.43 481.832 1509.1 481.248 1509.95 480.832C1510.81 480.4 1511.79 480.184 1512.87 480.184ZM1512.87 481.864C1512.15 481.864 1511.51 482.008 1510.95 482.296C1510.39 482.568 1509.95 482.96 1509.63 483.472C1509.31 483.968 1509.15 484.544 1509.15 485.2C1509.15 485.84 1509.31 486.416 1509.63 486.928C1509.95 487.424 1510.39 487.816 1510.95 488.104C1511.51 488.392 1512.15 488.536 1512.87 488.536C1513.59 488.536 1514.23 488.392 1514.79 488.104C1515.35 487.816 1515.79 487.424 1516.11 486.928C1516.43 486.416 1516.59 485.84 1516.59 485.2C1516.59 484.544 1516.43 483.968 1516.11 483.472C1515.79 482.96 1515.35 482.568 1514.79 482.296C1514.23 482.008 1513.59 481.864 1512.87 481.864ZM1544.6 479.152H1546.57V500.872H1544.6V479.152ZM1530.18 481.288H1532.14V494.728H1530.18V481.288ZM1530.18 493.552H1531.95C1533.62 493.552 1535.3 493.48 1537.02 493.336C1538.74 493.176 1540.52 492.912 1542.34 492.544L1542.61 494.224C1540.72 494.624 1538.9 494.904 1537.16 495.064C1535.42 495.208 1533.68 495.28 1531.95 495.28H1530.18V493.552ZM1565.57 479.152H1567.57V500.896H1565.57V479.152ZM1567.11 487.72H1571.12V489.376H1567.11V487.72ZM1551.82 493.792H1553.53C1554.85 493.792 1556.07 493.776 1557.17 493.744C1558.29 493.696 1559.37 493.616 1560.39 493.504C1561.43 493.392 1562.49 493.24 1563.56 493.048L1563.8 494.752C1562.68 494.944 1561.59 495.096 1560.53 495.208C1559.49 495.32 1558.41 495.392 1557.27 495.424C1556.13 495.456 1554.89 495.472 1553.53 495.472H1551.82V493.792ZM1551.82 481.264H1561.88V482.896H1553.79V494.56H1551.82V481.264ZM1575.07 499.136C1574.65 499.136 1574.29 498.986 1573.99 498.685C1573.69 498.384 1573.54 498.023 1573.54 497.602C1573.54 497.182 1573.69 496.821 1573.99 496.52C1574.29 496.219 1574.65 496.068 1575.07 496.068C1575.49 496.068 1575.85 496.219 1576.15 496.52C1576.46 496.821 1576.61 497.182 1576.61 497.602C1576.61 497.881 1576.53 498.136 1576.39 498.369C1576.26 498.602 1576.07 498.79 1575.84 498.932C1575.61 499.068 1575.36 499.136 1575.07 499.136Z" fill="#1E1E1E"/>
<mask id="path-14-inside-1_320_5112" fill="white">
<path d="M1246 620C1246 615.582 1249.58 612 1254 612H1786C1790.42 612 1794 615.582 1794 620V644C1794 648.418 1790.42 652 1786 652H1254C1249.58 652 1246 648.418 1246 644V620Z"/>
</mask>
<path d="M1246 620C1246 615.582 1249.58 612 1254 612H1786C1790.42 612 1794 615.582 1794 620V644C1794 648.418 1790.42 652 1786 652H1254C1249.58 652 1246 648.418 1246 644V620Z" fill="#00AE1A" fill-opacity="0.46"/>
<path d="M1254 612V613H1786V612V611H1254V612ZM1794 620H1793V644H1794H1795V620H1794ZM1786 652V651H1254V652V653H1786V652ZM1246 644H1247V620H1246H1245V644H1246ZM1254 652V651C1250.13 651 1247 647.866 1247 644H1246H1245C1245 648.971 1249.03 653 1254 653V652ZM1794 644H1793C1793 647.866 1789.87 651 1786 651V652V653C1790.97 653 1795 648.971 1795 644H1794ZM1786 612V613C1789.87 613 1793 616.134 1793 620H1794H1795C1795 615.029 1790.97 611 1786 611V612ZM1254 612V611C1249.03 611 1245 615.029 1245 620H1246H1247C1247 616.134 1250.13 613 1254 613V612Z" fill="#00AE1A" fill-opacity="0.46" mask="url(#path-14-inside-1_320_5112)"/>
<path d="M1483.8 636.352H1496.92V637.456H1483.8V636.352ZM1489.67 633.264H1490.98V636.816H1489.67V633.264ZM1485.4 625.84H1495.29V630.224H1486.74V633.12H1485.43V629.168H1493.98V626.928H1485.4V625.84ZM1485.43 632.56H1495.62V633.648H1485.43V632.56ZM1499.94 626.304H1509.25V627.392H1499.94V626.304ZM1498.52 636.032H1511.59V637.136H1498.52V636.032ZM1508.53 626.304H1509.85V627.76C1509.85 628.368 1509.84 629.019 1509.81 629.712C1509.8 630.395 1509.76 631.152 1509.69 631.984C1509.61 632.816 1509.48 633.755 1509.3 634.8L1507.96 634.656C1508.15 633.675 1508.28 632.773 1508.36 631.952C1508.44 631.131 1508.49 630.373 1508.5 629.68C1508.52 628.987 1508.53 628.347 1508.53 627.76V626.304ZM1523.77 624.784H1525.09V635.344H1523.77V624.784ZM1515.8 637.84H1525.54V638.928H1515.8V637.84ZM1515.8 634.272H1517.13V638.208H1515.8V634.272ZM1517.33 625.792C1518.06 625.792 1518.7 625.941 1519.27 626.24C1519.83 626.539 1520.28 626.96 1520.61 627.504C1520.94 628.037 1521.11 628.651 1521.11 629.344C1521.11 630.037 1520.94 630.656 1520.61 631.2C1520.28 631.733 1519.83 632.155 1519.27 632.464C1518.7 632.763 1518.06 632.912 1517.33 632.912C1516.62 632.912 1515.97 632.763 1515.4 632.464C1514.83 632.155 1514.38 631.733 1514.05 631.2C1513.72 630.656 1513.56 630.037 1513.56 629.344C1513.56 628.651 1513.72 628.037 1514.05 627.504C1514.38 626.96 1514.83 626.539 1515.4 626.24C1515.97 625.941 1516.62 625.792 1517.33 625.792ZM1517.33 626.944C1516.86 626.944 1516.44 627.045 1516.07 627.248C1515.7 627.451 1515.4 627.733 1515.17 628.096C1514.96 628.459 1514.85 628.875 1514.85 629.344C1514.85 629.824 1514.96 630.245 1515.17 630.608C1515.4 630.96 1515.7 631.237 1516.07 631.44C1516.44 631.643 1516.86 631.744 1517.33 631.744C1517.8 631.744 1518.22 631.643 1518.6 631.44C1518.98 631.237 1519.28 630.96 1519.49 630.608C1519.71 630.245 1519.81 629.824 1519.81 629.344C1519.81 628.875 1519.71 628.459 1519.49 628.096C1519.28 627.733 1518.98 627.451 1518.6 627.248C1518.22 627.045 1517.8 626.944 1517.33 626.944ZM1537.76 624.768H1539.08V639.248H1537.76V624.768ZM1538.77 630.72H1541.44V631.84H1538.77V630.72ZM1527.88 627.088H1536.4V628.176H1527.88V627.088ZM1532.21 629.36C1532.89 629.36 1533.5 629.504 1534.02 629.792C1534.55 630.08 1534.97 630.475 1535.27 630.976C1535.58 631.467 1535.73 632.037 1535.73 632.688C1535.73 633.339 1535.58 633.915 1535.27 634.416C1534.97 634.917 1534.55 635.312 1534.02 635.6C1533.5 635.877 1532.89 636.016 1532.21 636.016C1531.53 636.016 1530.92 635.877 1530.39 635.6C1529.87 635.312 1529.45 634.917 1529.14 634.416C1528.83 633.915 1528.68 633.339 1528.68 632.688C1528.68 632.037 1528.83 631.467 1529.14 630.976C1529.45 630.475 1529.87 630.08 1530.39 629.792C1530.92 629.504 1531.53 629.36 1532.21 629.36ZM1532.21 630.464C1531.77 630.464 1531.39 630.56 1531.04 630.752C1530.7 630.944 1530.43 631.205 1530.23 631.536C1530.04 631.867 1529.94 632.251 1529.94 632.688C1529.94 633.125 1530.04 633.515 1530.23 633.856C1530.43 634.187 1530.7 634.448 1531.04 634.64C1531.39 634.821 1531.77 634.912 1532.21 634.912C1532.64 634.912 1533.02 634.821 1533.36 634.64C1533.71 634.448 1533.97 634.187 1534.16 633.856C1534.37 633.515 1534.47 633.125 1534.47 632.688C1534.47 632.251 1534.37 631.867 1534.16 631.536C1533.97 631.205 1533.71 630.944 1533.36 630.752C1533.02 630.56 1532.64 630.464 1532.21 630.464ZM1531.52 624.944H1532.85V627.568H1531.52V624.944ZM1553.22 624.768H1554.55V639.248H1553.22V624.768ZM1548.98 626.336H1550.29C1550.29 627.381 1550.16 628.389 1549.91 629.36C1549.66 630.331 1549.27 631.253 1548.74 632.128C1548.21 632.992 1547.51 633.797 1546.66 634.544C1545.81 635.291 1544.77 635.957 1543.56 636.544L1542.85 635.472C1544.25 634.8 1545.4 634.016 1546.31 633.12C1547.21 632.224 1547.89 631.227 1548.32 630.128C1548.76 629.019 1548.98 627.824 1548.98 626.544V626.336ZM1543.52 626.336H1549.54V627.408H1543.52V626.336Z" fill="#F5F5F5"/>
<path d="M1444.44 331.748C1446.05 331.748 1447.46 332.216 1448.69 333.152C1449.91 334.064 1450.87 335.372 1451.57 337.076C1452.26 338.78 1452.61 340.784 1452.61 343.088C1452.61 345.392 1452.26 347.396 1451.57 349.1C1450.87 350.804 1449.91 352.124 1448.69 353.06C1447.46 353.996 1446.05 354.464 1444.44 354.464C1442.86 354.464 1441.44 353.996 1440.19 353.06C1438.97 352.124 1438.01 350.804 1437.31 349.1C1436.62 347.396 1436.27 345.392 1436.27 343.088C1436.27 340.784 1436.62 338.78 1437.31 337.076C1438.01 335.372 1438.97 334.064 1440.19 333.152C1441.44 332.216 1442.86 331.748 1444.44 331.748ZM1444.44 334.412C1443.41 334.412 1442.48 334.772 1441.67 335.492C1440.88 336.188 1440.25 337.196 1439.8 338.516C1439.34 339.812 1439.11 341.336 1439.11 343.088C1439.11 344.84 1439.34 346.376 1439.8 347.696C1440.25 348.992 1440.88 350 1441.67 350.72C1442.48 351.44 1443.42 351.8 1444.48 351.8C1445.51 351.8 1446.42 351.44 1447.21 350.72C1448.03 350 1448.65 348.992 1449.08 347.696C1449.54 346.376 1449.77 344.84 1449.77 343.088C1449.77 341.336 1449.54 339.812 1449.08 338.516C1448.65 337.196 1448.03 336.188 1447.21 335.492C1446.42 334.772 1445.5 334.412 1444.44 334.412ZM1457.83 329.228H1460.82V361.808H1457.83V329.228ZM1460.14 342.224H1466.15V344.744H1460.14V342.224ZM1492.57 329.228H1495.56V361.844H1492.57V329.228ZM1478.39 331.748C1479.99 331.748 1481.41 332.216 1482.63 333.152C1483.88 334.064 1484.85 335.372 1485.55 337.076C1486.27 338.78 1486.63 340.784 1486.63 343.088C1486.63 345.392 1486.27 347.396 1485.55 349.1C1484.85 350.804 1483.88 352.124 1482.63 353.06C1481.41 353.996 1479.99 354.464 1478.39 354.464C1476.78 354.464 1475.35 353.996 1474.1 353.06C1472.85 352.124 1471.87 350.804 1471.15 349.1C1470.45 347.396 1470.11 345.392 1470.11 343.088C1470.11 340.784 1470.45 338.78 1471.15 337.076C1471.87 335.372 1472.85 334.064 1474.1 333.152C1475.35 332.216 1476.78 331.748 1478.39 331.748ZM1478.39 334.412C1477.31 334.412 1476.36 334.772 1475.54 335.492C1474.75 336.188 1474.13 337.196 1473.67 338.516C1473.21 339.812 1472.99 341.336 1472.99 343.088C1472.99 344.84 1473.21 346.376 1473.67 347.696C1474.13 348.992 1474.75 350 1475.54 350.72C1476.36 351.44 1477.31 351.8 1478.39 351.8C1479.44 351.8 1480.37 351.44 1481.16 350.72C1481.97 350 1482.61 348.992 1483.07 347.696C1483.52 346.376 1483.75 344.84 1483.75 343.088C1483.75 341.336 1483.52 339.812 1483.07 338.516C1482.61 337.196 1481.97 336.188 1481.16 335.492C1480.37 334.772 1479.44 334.412 1478.39 334.412ZM1525.69 329.228H1528.67V361.844H1525.69V329.228ZM1504.12 351.224H1506.75C1508.91 351.224 1510.85 351.2 1512.58 351.152C1514.31 351.104 1515.94 350.996 1517.48 350.828C1519.04 350.66 1520.62 350.432 1522.23 350.144L1522.52 352.664C1520.89 352.976 1519.28 353.216 1517.69 353.384C1516.11 353.528 1514.44 353.636 1512.69 353.708C1510.94 353.756 1508.96 353.78 1506.75 353.78H1504.12V351.224ZM1504.12 332.324H1519.49V334.808H1507.11V352.16H1504.12V332.324ZM1553.41 334.592H1555.82V335.996C1555.82 337.844 1555.44 339.548 1554.67 341.108C1553.93 342.668 1552.87 344.024 1551.5 345.176C1550.14 346.328 1548.54 347.204 1546.72 347.804L1545.28 345.428C1546.88 344.924 1548.3 344.204 1549.52 343.268C1550.75 342.332 1551.7 341.24 1552.37 339.992C1553.06 338.744 1553.41 337.412 1553.41 335.996V334.592ZM1553.92 334.592H1556.36V335.996C1556.36 337.292 1556.69 338.528 1557.34 339.704C1558.01 340.856 1558.94 341.888 1560.14 342.8C1561.34 343.688 1562.74 344.372 1564.32 344.852L1562.95 347.156C1561.13 346.604 1559.53 345.788 1558.16 344.708C1556.82 343.604 1555.78 342.308 1555.03 340.82C1554.29 339.332 1553.92 337.724 1553.92 335.996V334.592ZM1546.18 333.008H1563.56V335.42H1546.18V333.008ZM1553.41 329.084H1556.4V334.016H1553.41V329.084ZM1567.56 329.228H1570.55V348.128H1567.56V329.228ZM1569.72 337.256H1575.34V339.74H1569.72V337.256ZM1558.88 350.828H1561.4V351.692C1561.4 352.964 1561.09 354.152 1560.47 355.256C1559.87 356.36 1559.02 357.344 1557.91 358.208C1556.83 359.072 1555.58 359.792 1554.17 360.368C1552.75 360.968 1551.24 361.4 1549.63 361.664L1548.52 359.36C1549.91 359.168 1551.23 358.832 1552.48 358.352C1553.72 357.872 1554.83 357.296 1555.79 356.624C1556.75 355.928 1557.5 355.16 1558.06 354.32C1558.61 353.48 1558.88 352.604 1558.88 351.692V350.828ZM1559.42 350.828H1561.98V351.692C1561.98 352.604 1562.26 353.468 1562.81 354.284C1563.38 355.1 1564.15 355.856 1565.11 356.552C1566.07 357.248 1567.16 357.848 1568.39 358.352C1569.64 358.832 1570.96 359.18 1572.35 359.396L1571.23 361.7C1569.62 361.412 1568.11 360.968 1566.7 360.368C1565.28 359.792 1564.02 359.072 1562.92 358.208C1561.84 357.32 1560.98 356.324 1560.36 355.22C1559.74 354.116 1559.42 352.94 1559.42 351.692V350.828ZM1549.78 349.892H1571.09V352.34H1549.78V349.892ZM1602.12 329.228H1605.11V361.808H1602.12V329.228ZM1592.58 332.756H1595.53C1595.53 335.108 1595.24 337.376 1594.67 339.56C1594.11 341.744 1593.24 343.82 1592.04 345.788C1590.84 347.732 1589.28 349.544 1587.36 351.224C1585.44 352.904 1583.11 354.404 1580.37 355.724L1578.79 353.312C1581.93 351.8 1584.53 350.036 1586.57 348.02C1588.61 346.004 1590.12 343.76 1591.1 341.288C1592.09 338.792 1592.58 336.104 1592.58 333.224V332.756ZM1580.3 332.756H1593.84V335.168H1580.3V332.756Z" fill="black"/>
<rect x="0.5" y="68.5" width="1105" height="1011" fill="#FFFFF2" stroke="#FFFFF2"/>
<rect x="398.5" y="401.5" width="309" height="278" stroke="black"/>
<path d="M468.636 563V516.455H474.273V558H495.909V563H468.636ZM542.097 539.727C542.097 544.636 541.21 548.879 539.438 552.455C537.665 556.03 535.233 558.788 532.142 560.727C529.051 562.667 525.521 563.636 521.551 563.636C517.581 563.636 514.051 562.667 510.96 560.727C507.869 558.788 505.438 556.03 503.665 552.455C501.892 548.879 501.006 544.636 501.006 539.727C501.006 534.818 501.892 530.576 503.665 527C505.438 523.424 507.869 520.667 510.96 518.727C514.051 516.788 517.581 515.818 521.551 515.818C525.521 515.818 529.051 516.788 532.142 518.727C535.233 520.667 537.665 523.424 539.438 527C541.21 530.576 542.097 534.818 542.097 539.727ZM536.642 539.727C536.642 535.697 535.968 532.295 534.619 529.523C533.286 526.75 531.475 524.652 529.188 523.227C526.915 521.803 524.369 521.091 521.551 521.091C518.733 521.091 516.18 521.803 513.892 523.227C511.619 524.652 509.809 526.75 508.46 529.523C507.127 532.295 506.46 535.697 506.46 539.727C506.46 543.758 507.127 547.159 508.46 549.932C509.809 552.705 511.619 554.803 513.892 556.227C516.18 557.652 518.733 558.364 521.551 558.364C524.369 558.364 526.915 557.652 529.188 556.227C531.475 554.803 533.286 552.705 534.619 549.932C535.968 547.159 536.642 543.758 536.642 539.727ZM583.392 531C582.892 529.47 582.233 528.098 581.415 526.886C580.612 525.659 579.65 524.614 578.528 523.75C577.422 522.886 576.165 522.227 574.756 521.773C573.347 521.318 571.801 521.091 570.119 521.091C567.362 521.091 564.854 521.803 562.597 523.227C560.339 524.652 558.544 526.75 557.21 529.523C555.877 532.295 555.21 535.697 555.21 539.727C555.21 543.758 555.884 547.159 557.233 549.932C558.581 552.705 560.407 554.803 562.71 556.227C565.013 557.652 567.604 558.364 570.483 558.364C573.15 558.364 575.498 557.795 577.528 556.659C579.574 555.508 581.165 553.886 582.301 551.795C583.453 549.689 584.028 547.212 584.028 544.364L585.756 544.727H571.756V539.727H589.483V544.727C589.483 548.561 588.665 551.894 587.028 554.727C585.407 557.561 583.165 559.758 580.301 561.318C577.453 562.864 574.18 563.636 570.483 563.636C566.362 563.636 562.741 562.667 559.619 560.727C556.513 558.788 554.089 556.03 552.347 552.455C550.619 548.879 549.756 544.636 549.756 539.727C549.756 536.045 550.248 532.735 551.233 529.795C552.233 526.841 553.642 524.326 555.46 522.25C557.278 520.174 559.43 518.583 561.915 517.477C564.4 516.371 567.134 515.818 570.119 515.818C572.574 515.818 574.862 516.189 576.983 516.932C579.119 517.659 581.021 518.697 582.688 520.045C584.369 521.379 585.771 522.977 586.892 524.841C588.013 526.689 588.786 528.742 589.21 531H583.392ZM638.409 539.727C638.409 544.636 637.523 548.879 635.75 552.455C633.977 556.03 631.545 558.788 628.455 560.727C625.364 562.667 621.833 563.636 617.864 563.636C613.894 563.636 610.364 562.667 607.273 560.727C604.182 558.788 601.75 556.03 599.977 552.455C598.205 548.879 597.318 544.636 597.318 539.727C597.318 534.818 598.205 530.576 599.977 527C601.75 523.424 604.182 520.667 607.273 518.727C610.364 516.788 613.894 515.818 617.864 515.818C621.833 515.818 625.364 516.788 628.455 518.727C631.545 520.667 633.977 523.424 635.75 527C637.523 530.576 638.409 534.818 638.409 539.727ZM632.955 539.727C632.955 535.697 632.28 532.295 630.932 529.523C629.598 526.75 627.788 524.652 625.5 523.227C623.227 521.803 620.682 521.091 617.864 521.091C615.045 521.091 612.492 521.803 610.205 523.227C607.932 524.652 606.121 526.75 604.773 529.523C603.439 532.295 602.773 535.697 602.773 539.727C602.773 543.758 603.439 547.159 604.773 549.932C606.121 552.705 607.932 554.803 610.205 556.227C612.492 557.652 615.045 558.364 617.864 558.364C620.682 558.364 623.227 557.652 625.5 556.227C627.788 554.803 629.598 552.705 630.932 549.932C632.28 547.159 632.955 543.758 632.955 539.727Z" fill="black"/>
<path d="M1683.5 571.5V584" stroke="black"/>
</g>
<defs>
<filter id="filter0_di_320_5112" x="0" y="0" width="1920" height="68.5937" filterUnits="userSpaceOnUse" color-interpolation-filters="sRGB">
<feFlood flood-opacity="0" result="BackgroundImageFix"/>
<feColorMatrix in="SourceAlpha" type="matrix" values="0 0 0 0 0 0 0 0 0 0 0 0 0 0 0 0 0 0 127 0" result="hardAlpha"/>
<feOffset dy="0.593692"/>
<feColorMatrix type="matrix" values="0 0 0 0 0 0 0 0 0 0 0 0 0 0 0 0 0 0 0.15 0"/>
<feBlend mode="normal" in2="BackgroundImageFix" result="effect1_dropShadow_320_5112"/>
<feBlend mode="normal" in="SourceGraphic" in2="effect1_dropShadow_320_5112" result="shape"/>
<feColorMatrix in="SourceAlpha" type="matrix" values="0 0 0 0 0 0 0 0 0 0 0 0 0 0 0 0 0 0 127 0" result="hardAlpha"/>
<feOffset dy="-0.593692"/>
<feComposite in2="hardAlpha" operator="arithmetic" k2="-1" k3="1"/>
<feColorMatrix type="matrix" values="0 0 0 0 0 0 0 0 0 0 0 0 0 0 0 0 0 0 0.05 0"/>
<feBlend mode="normal" in2="shape" result="effect2_innerShadow_320_5112"/>
</filter>
<clipPath id="clip0_320_5112">
<rect width="1920" height="1080" fill="white"/>
</clipPath>
<clipPath id="clip1_320_5112">
<rect width="15.36" height="15.36" fill="white" transform="translate(144 26.32)"/>
</clipPath>
</defs>
</svg>
